<?xml version="1.0" standalone="no"?>
<svg xmlns="http://www.w3.org/2000/svg" width="200" height="200" xmlns:xlink="http://www.w3.org/1999/xlink" viewBox="0 0 200 200"><defs><clipPath id="clip-path-background-color-0"><rect x="0" y="0" width="200" height="200"/></clipPath><clipPath id="clip-path-dot-color-0"><path d="M 61 13v 6h 3a 3 3, 0, 0, 0, 0 -6" transform="rotate(-90,64,16)"/><circle cx="76" cy="16" r="3" transform="rotate(0,76,16)"/><path d="M 85 13v 6h 3a 3 3, 0, 0, 0, 0 -6" transform="rotate(-90,88,16)"/><path d="M 103 13v 6h 6v -3a 3 3, 0, 0, 0, -3 -3" transform="rotate(-90,106,16)"/><rect x="109" y="13" width="6" height="6" transform="rotate(0,112,16)"/><path d="M 115 13v 6h 6v -3a 3 3, 0, 0, 0, -3 -3" transform="rotate(0,118,16)"/><path d="M 127 13v 6h 3a 3 3, 0, 0, 0, 0 -6" transform="rotate(180,130,16)"/><path d="M 133 13v 6h 6v -3a 3 3, 0, 0, 0, -3 -3" transform="rotate(0,136,16)"/><path d="M 61 19v 6h 3a 3 3, 0, 0, 0, 0 -6" transform="rotate(90,64,22)"/><rect x="85" y="19" width="6" height="6" transform="rotate(0,88,22)"/><path d="M 97 19v 6h 6v -3a 3 3, 0, 0, 0, -3 -3" transform="rotate(-90,100,22)"/><rect x="103" y="19" width="6" height="6" transform="rotate(0,106,22)"/><path d="M 115 19v 6h 3a 3 3, 0, 0, 0, 0 -6" transform="rotate(90,118,22)"/><rect x="133" y="19" width="6" height="6" transform="rotate(0,136,22)"/><path d="M 73 25v 6h 3a 3 3, 0, 0, 0, 0 -6" transform="rotate(180,76,28)"/><rect x="79" y="25" width="6" height="6" transform="rotate(0,82,28)"/><rect x="85" y="25" width="6" height="6" transform="rotate(0,88,28)"/><rect x="91" y="25" width="6" height="6" transform="rotate(0,94,28)"/><rect x="97" y="25" width="6" height="6" transform="rotate(0,100,28)"/><path d="M 103 25v 6h 6v -3a 3 3, 0, 0, 0, -3 -3" transform="rotate(90,106,28)"/><path d="M 121 25v 6h 3a 3 3, 0, 0, 0, 0 -6" transform="rotate(-90,124,28)"/><path d="M 133 25v 6h 3a 3 3, 0, 0, 0, 0 -6" transform="rotate(90,136,28)"/><path d="M 61 31v 6h 3a 3 3, 0, 0, 0, 0 -6" transform="rotate(180,64,34)"/><path d="M 67 31v 6h 3a 3 3, 0, 0, 0, 0 -6" transform="rotate(0,70,34)"/><path d="M 109 31v 6h 3a 3 3, 0, 0, 0, 0 -6" transform="rotate(180,112,34)"/><rect x="115" y="31" width="6" height="6" transform="rotate(0,118,34)"/><path d="M 121 31v 6h 6v -3a 3 3, 0, 0, 0, -3 -3" transform="rotate(90,124,34)"/><circle cx="76" cy="40" r="3" transform="rotate(0,76,40)"/><circle cx="94" cy="40" r="3" transform="rotate(0,94,40)"/><path d="M 127 37v 6h 3a 3 3, 0, 0, 0, 0 -6" transform="rotate(-90,130,40)"/><circle cx="70" cy="46" r="3" transform="rotate(0,70,46)"/><circle cx="82" cy="46" r="3" transform="rotate(0,82,46)"/><path d="M 97 43v 6h 3a 3 3, 0, 0, 0, 0 -6" transform="rotate(-90,100,46)"/><path d="M 115 43v 6h 3a 3 3, 0, 0, 0, 0 -6" transform="rotate(180,118,46)"/><rect x="121" y="43" width="6" height="6" transform="rotate(0,124,46)"/><rect x="127" y="43" width="6" height="6" transform="rotate(0,130,46)"/><path d="M 133 43v 6h 6v -3a 3 3, 0, 0, 0, -3 -3" transform="rotate(0,136,46)"/><path d="M 61 49v 6h 3a 3 3, 0, 0, 0, 0 -6" transform="rotate(-90,64,52)"/><path d="M 73 49v 6h 3a 3 3, 0, 0, 0, 0 -6" transform="rotate(-90,76,52)"/><path d="M 85 49v 6h 3a 3 3, 0, 0, 0, 0 -6" transform="rotate(-90,88,52)"/><rect x="97" y="49" width="6" height="6" transform="rotate(0,100,52)"/><circle cx="112" cy="52" r="3" transform="rotate(0,112,52)"/><path d="M 121 49v 6h 3a 3 3, 0, 0, 0, 0 -6" transform="rotate(90,124,52)"/><rect x="133" y="49" width="6" height="6" transform="rotate(0,136,52)"/><path d="M 61 55v 6h 3a 3 3, 0, 0, 0, 0 -6" transform="rotate(90,64,58)"/><path d="M 73 55v 6h 6v -3a 3 3, 0, 0, 0, -3 -3" transform="rotate(180,76,58)"/><rect x="79" y="55" width="6" height="6" transform="rotate(0,82,58)"/><rect x="85" y="55" width="6" height="6" transform="rotate(0,88,58)"/><rect x="91" y="55" width="6" height="6" transform="rotate(0,94,58)"/><rect x="97" y="55" width="6" height="6" transform="rotate(0,100,58)"/><path d="M 115 55v 6h 3a 3 3, 0, 0, 0, 0 -6" transform="rotate(-90,118,58)"/><path d="M 133 55v 6h 3a 3 3, 0, 0, 0, 0 -6" transform="rotate(90,136,58)"/><circle cx="16" cy="64" r="3" transform="rotate(0,16,64)"/><path d="M 25 61v 6h 3a 3 3, 0, 0, 0, 0 -6" transform="rotate(180,28,64)"/><path d="M 31 61v 6h 6v -3a 3 3, 0, 0, 0, -3 -3" transform="rotate(0,34,64)"/><path d="M 43 61v 6h 6v -3a 3 3, 0, 0, 0, -3 -3" transform="rotate(-90,46,64)"/><rect x="49" y="61" width="6" height="6" transform="rotate(0,52,64)"/><path d="M 55 61v 6h 3a 3 3, 0, 0, 0, 0 -6" transform="rotate(0,58,64)"/><path d="M 67 61v 6h 3a 3 3, 0, 0, 0, 0 -6" transform="rotate(-90,70,64)"/><rect x="79" y="61" width="6" height="6" transform="rotate(0,82,64)"/><rect x="85" y="61" width="6" height="6" transform="rotate(0,88,64)"/><rect x="91" y="61" width="6" height="6" transform="rotate(0,94,64)"/><path d="M 97 61v 6h 6v -3a 3 3, 0, 0, 0, -3 -3" transform="rotate(90,100,64)"/><path d="M 109 61v 6h 6v -3a 3 3, 0, 0, 0, -3 -3" transform="rotate(-90,112,64)"/><rect x="115" y="61" width="6" height="6" transform="rotate(0,118,64)"/><path d="M 121 61v 6h 6v -3a 3 3, 0, 0, 0, -3 -3" transform="rotate(0,124,64)"/><path d="M 145 61v 6h 3a 3 3, 0, 0, 0, 0 -6" transform="rotate(-90,148,64)"/><circle cx="166" cy="64" r="3" transform="rotate(0,166,64)"/><path d="M 175 61v 6h 3a 3 3, 0, 0, 0, 0 -6" transform="rotate(180,178,64)"/><path d="M 181 61v 6h 6v -3a 3 3, 0, 0, 0, -3 -3" transform="rotate(0,184,64)"/><circle cx="22" cy="70" r="3" transform="rotate(0,22,70)"/><path d="M 31 67v 6h 3a 3 3, 0, 0, 0, 0 -6" transform="rotate(90,34,70)"/><rect x="43" y="67" width="6" height="6" transform="rotate(0,46,70)"/><path d="M 61 67v 6h 6v -3a 3 3, 0, 0, 0, -3 -3" transform="rotate(-90,64,70)"/><rect x="67" y="67" width="6" height="6" transform="rotate(0,70,70)"/><rect x="79" y="67" width="6" height="6" transform="rotate(0,82,70)"/><path d="M 85 67v 6h 6v -3a 3 3, 0, 0, 0, -3 -3" transform="rotate(90,88,70)"/><path d="M 103 67v 6h 6v -3a 3 3, 0, 0, 0, -3 -3" transform="rotate(-90,106,70)"/><path d="M 109 67v 6h 6v -3a 3 3, 0, 0, 0, -3 -3" transform="rotate(90,112,70)"/><path d="M 121 67v 6h 6v -3a 3 3, 0, 0, 0, -3 -3" transform="rotate(180,124,70)"/><rect x="127" y="67" width="6" height="6" transform="rotate(0,130,70)"/><rect x="133" y="67" width="6" height="6" transform="rotate(0,136,70)"/><rect x="139" y="67" width="6" height="6" transform="rotate(0,142,70)"/><rect x="145" y="67" width="6" height="6" transform="rotate(0,148,70)"/><rect x="151" y="67" width="6" height="6" transform="rotate(0,154,70)"/><path d="M 157 67v 6h 6v -3a 3 3, 0, 0, 0, -3 -3" transform="rotate(0,160,70)"/><path d="M 181 67v 6h 3a 3 3, 0, 0, 0, 0 -6" transform="rotate(90,184,70)"/><circle cx="16" cy="76" r="3" transform="rotate(0,16,76)"/><path d="M 37 73v 6h 6v -3a 3 3, 0, 0, 0, -3 -3" transform="rotate(-90,40,76)"/><rect x="43" y="73" width="6" height="6" transform="rotate(0,46,76)"/><path d="M 49 73v 6h 3a 3 3, 0, 0, 0, 0 -6" transform="rotate(0,52,76)"/><rect x="61" y="73" width="6" height="6" transform="rotate(0,64,76)"/><rect x="67" y="73" width="6" height="6" transform="rotate(0,70,76)"/><rect x="79" y="73" width="6" height="6" transform="rotate(0,82,76)"/><path d="M 97 73v 6h 6v -3a 3 3, 0, 0, 0, -3 -3" transform="rotate(-90,100,76)"/><rect x="103" y="73" width="6" height="6" transform="rotate(0,106,76)"/><circle cx="118" cy="76" r="3" transform="rotate(0,118,76)"/><rect x="133" y="73" width="6" height="6" transform="rotate(0,136,76)"/><path d="M 151 73v 6h 6v -3a 3 3, 0, 0, 0, -3 -3" transform="rotate(180,154,76)"/><path d="M 157 73v 6h 6v -3a 3 3, 0, 0, 0, -3 -3" transform="rotate(90,160,76)"/><path d="M 169 73v 6h 3a 3 3, 0, 0, 0, 0 -6" transform="rotate(180,172,76)"/><path d="M 175 73v 6h 3a 3 3, 0, 0, 0, 0 -6" transform="rotate(0,178,76)"/><path d="M 37 79v 6h 3a 3 3, 0, 0, 0, 0 -6" transform="rotate(90,40,82)"/><path d="M 55 79v 6h 6v -3a 3 3, 0, 0, 0, -3 -3" transform="rotate(-90,58,82)"/><rect x="61" y="79" width="6" height="6" transform="rotate(0,64,82)"/><rect x="67" y="79" width="6" height="6" transform="rotate(0,70,82)"/><rect x="73" y="79" width="6" height="6" transform="rotate(0,76,82)"/><rect x="79" y="79" width="6" height="6" transform="rotate(0,82,82)"/><rect x="85" y="79" width="6" height="6" transform="rotate(0,88,82)"/><rect x="91" y="79" width="6" height="6" transform="rotate(0,94,82)"/><rect x="97" y="79" width="6" height="6" transform="rotate(0,100,82)"/><path d="M 103 79v 6h 6v -3a 3 3, 0, 0, 0, -3 -3" transform="rotate(90,106,82)"/><path d="M 121 79v 6h 3a 3 3, 0, 0, 0, 0 -6" transform="rotate(180,124,82)"/><rect x="127" y="79" width="6" height="6" transform="rotate(0,130,82)"/><rect x="133" y="79" width="6" height="6" transform="rotate(0,136,82)"/><rect x="139" y="79" width="6" height="6" transform="rotate(0,142,82)"/><path d="M 145 79v 6h 3a 3 3, 0, 0, 0, 0 -6" transform="rotate(0,148,82)"/><circle cx="184" cy="82" r="3" transform="rotate(0,184,82)"/><path d="M 49 85v 6h 3a 3 3, 0, 0, 0, 0 -6" transform="rotate(180,52,88)"/><path d="M 55 85v 6h 6v -3a 3 3, 0, 0, 0, -3 -3" transform="rotate(90,58,88)"/><path d="M 73 85v 6h 3a 3 3, 0, 0, 0, 0 -6" transform="rotate(90,76,88)"/><path d="M 109 85v 6h 3a 3 3, 0, 0, 0, 0 -6" transform="rotate(180,112,88)"/><path d="M 115 85v 6h 6v -3a 3 3, 0, 0, 0, -3 -3" transform="rotate(0,118,88)"/><rect x="127" y="85" width="6" height="6" transform="rotate(0,130,88)"/><circle cx="154" cy="88" r="3" transform="rotate(0,154,88)"/><path d="M 163 85v 6h 3a 3 3, 0, 0, 0, 0 -6" transform="rotate(180,166,88)"/><path d="M 169 85v 6h 6v -3a 3 3, 0, 0, 0, -3 -3" transform="rotate(0,172,88)"/><path d="M 31 91v 6h 3a 3 3, 0, 0, 0, 0 -6" transform="rotate(180,34,94)"/><path d="M 37 91v 6h 3a 3 3, 0, 0, 0, 0 -6" transform="rotate(0,40,94)"/><path d="M 79 91v 6h 6v -3a 3 3, 0, 0, 0, -3 -3" transform="rotate(-90,82,94)"/><rect x="85" y="91" width="6" height="6" transform="rotate(0,88,94)"/><path d="M 91 91v 6h 3a 3 3, 0, 0, 0, 0 -6" transform="rotate(0,94,94)"/><path d="M 115 91v 6h 6v -3a 3 3, 0, 0, 0, -3 -3" transform="rotate(180,118,94)"/><rect x="121" y="91" width="6" height="6" transform="rotate(0,124,94)"/><rect x="127" y="91" width="6" height="6" transform="rotate(0,130,94)"/><circle cx="148" cy="94" r="3" transform="rotate(0,148,94)"/><rect x="169" y="91" width="6" height="6" transform="rotate(0,172,94)"/><rect x="175" y="91" width="6" height="6" transform="rotate(0,178,94)"/><path d="M 181 91v 6h 6v -3a 3 3, 0, 0, 0, -3 -3" transform="rotate(0,184,94)"/><path d="M 19 97v 6h 3a 3 3, 0, 0, 0, 0 -6" transform="rotate(-90,22,100)"/><path d="M 43 97v 6h 6v -3a 3 3, 0, 0, 0, -3 -3" transform="rotate(-90,46,100)"/><rect x="49" y="97" width="6" height="6" transform="rotate(0,52,100)"/><path d="M 55 97v 6h 6v -3a 3 3, 0, 0, 0, -3 -3" transform="rotate(0,58,100)"/><path d="M 67 97v 6h 3a 3 3, 0, 0, 0, 0 -6" transform="rotate(180,70,100)"/><rect x="73" y="97" width="6" height="6" transform="rotate(0,76,100)"/><path d="M 79 97v 6h 6v -3a 3 3, 0, 0, 0, -3 -3" transform="rotate(90,82,100)"/><circle cx="100" cy="100" r="3" transform="rotate(0,100,100)"/><path d="M 127 97v 6h 3a 3 3, 0, 0, 0, 0 -6" transform="rotate(90,130,100)"/><path d="M 151 97v 6h 3a 3 3, 0, 0, 0, 0 -6" transform="rotate(-90,154,100)"/><path d="M 169 97v 6h 6v -3a 3 3, 0, 0, 0, -3 -3" transform="rotate(180,172,100)"/><rect x="175" y="97" width="6" height="6" transform="rotate(0,178,100)"/><path d="M 181 97v 6h 6v -3a 3 3, 0, 0, 0, -3 -3" transform="rotate(90,184,100)"/><path d="M 13 103v 6h 3a 3 3, 0, 0, 0, 0 -6" transform="rotate(180,16,106)"/><path d="M 19 103v 6h 6v -3a 3 3, 0, 0, 0, -3 -3" transform="rotate(90,22,106)"/><circle cx="34" cy="106" r="3" transform="rotate(0,34,106)"/><path d="M 43 103v 6h 3a 3 3, 0, 0, 0, 0 -6" transform="rotate(90,46,106)"/><path d="M 55 103v 6h 3a 3 3, 0, 0, 0, 0 -6" transform="rotate(90,58,106)"/><rect x="73" y="103" width="6" height="6" transform="rotate(0,76,106)"/><path d="M 85 103v 6h 3a 3 3, 0, 0, 0, 0 -6" transform="rotate(180,88,106)"/><path d="M 91 103v 6h 3a 3 3, 0, 0, 0, 0 -6" transform="rotate(0,94,106)"/><circle cx="106" cy="106" r="3" transform="rotate(0,106,106)"/><path d="M 121 103v 6h 3a 3 3, 0, 0, 0, 0 -6" transform="rotate(-90,124,106)"/><circle cx="136" cy="106" r="3" transform="rotate(0,136,106)"/><path d="M 145 103v 6h 3a 3 3, 0, 0, 0, 0 -6" transform="rotate(180,148,106)"/><rect x="151" y="103" width="6" height="6" transform="rotate(0,154,106)"/><path d="M 157 103v 6h 6v -3a 3 3, 0, 0, 0, -3 -3" transform="rotate(0,160,106)"/><rect x="175" y="103" width="6" height="6" transform="rotate(0,178,106)"/><path d="M 25 109v 6h 3a 3 3, 0, 0, 0, 0 -6" transform="rotate(-90,28,112)"/><circle cx="40" cy="112" r="3" transform="rotate(0,40,112)"/><circle cx="52" cy="112" r="3" transform="rotate(0,52,112)"/><path d="M 61 109v 6h 3a 3 3, 0, 0, 0, 0 -6" transform="rotate(180,64,112)"/><rect x="67" y="109" width="6" height="6" transform="rotate(0,70,112)"/><rect x="73" y="109" width="6" height="6" transform="rotate(0,76,112)"/><path d="M 79 109v 6h 6v -3a 3 3, 0, 0, 0, -3 -3" transform="rotate(0,82,112)"/><rect x="121" y="109" width="6" height="6" transform="rotate(0,124,112)"/><circle cx="142" cy="112" r="3" transform="rotate(0,142,112)"/><rect x="151" y="109" width="6" height="6" transform="rotate(0,154,112)"/><rect x="157" y="109" width="6" height="6" transform="rotate(0,160,112)"/><path d="M 163 109v 6h 6v -3a 3 3, 0, 0, 0, -3 -3" transform="rotate(0,166,112)"/><rect x="175" y="109" width="6" height="6" transform="rotate(0,178,112)"/><rect x="25" y="115" width="6" height="6" transform="rotate(0,28,118)"/><path d="M 67 115v 6h 6v -3a 3 3, 0, 0, 0, -3 -3" transform="rotate(180,70,118)"/><rect x="73" y="115" width="6" height="6" transform="rotate(0,76,118)"/><rect x="79" y="115" width="6" height="6" transform="rotate(0,82,118)"/><circle cx="94" cy="118" r="3" transform="rotate(0,94,118)"/><rect x="121" y="115" width="6" height="6" transform="rotate(0,124,118)"/><path d="M 133 115v 6h 3a 3 3, 0, 0, 0, 0 -6" transform="rotate(-90,136,118)"/><path d="M 151 115v 6h 3a 3 3, 0, 0, 0, 0 -6" transform="rotate(90,154,118)"/><path d="M 163 115v 6h 6v -3a 3 3, 0, 0, 0, -3 -3" transform="rotate(180,166,118)"/><rect x="169" y="115" width="6" height="6" transform="rotate(0,172,118)"/><path d="M 175 115v 6h 6v -3a 3 3, 0, 0, 0, -3 -3" transform="rotate(90,178,118)"/><circle cx="16" cy="124" r="3" transform="rotate(0,16,124)"/><path d="M 25 121v 6h 6v -3a 3 3, 0, 0, 0, -3 -3" transform="rotate(180,28,124)"/><path d="M 31 121v 6h 3a 3 3, 0, 0, 0, 0 -6" transform="rotate(0,34,124)"/><path d="M 49 121v 6h 3a 3 3, 0, 0, 0, 0 -6" transform="rotate(180,52,124)"/><path d="M 55 121v 6h 6v -3a 3 3, 0, 0, 0, -3 -3" transform="rotate(0,58,124)"/><path d="M 79 121v 6h 6v -3a 3 3, 0, 0, 0, -3 -3" transform="rotate(180,82,124)"/><path d="M 85 121v 6h 3a 3 3, 0, 0, 0, 0 -6" transform="rotate(0,88,124)"/><path d="M 121 121v 6h 3a 3 3, 0, 0, 0, 0 -6" transform="rotate(90,124,124)"/><path d="M 133 121v 6h 6v -3a 3 3, 0, 0, 0, -3 -3" transform="rotate(180,136,124)"/><rect x="139" y="121" width="6" height="6" transform="rotate(0,142,124)"/><path d="M 145 121v 6h 3a 3 3, 0, 0, 0, 0 -6" transform="rotate(0,148,124)"/><path d="M 157 121v 6h 3a 3 3, 0, 0, 0, 0 -6" transform="rotate(-90,160,124)"/><rect x="169" y="121" width="6" height="6" transform="rotate(0,172,124)"/><rect x="55" y="127" width="6" height="6" transform="rotate(0,58,130)"/><rect x="61" y="127" width="6" height="6" transform="rotate(0,64,130)"/><path d="M 67 127v 6h 6v -3a 3 3, 0, 0, 0, -3 -3" transform="rotate(0,70,130)"/><path d="M 103 127v 6h 6v -3a 3 3, 0, 0, 0, -3 -3" transform="rotate(-90,106,130)"/><rect x="109" y="127" width="6" height="6" transform="rotate(0,112,130)"/><path d="M 115 127v 6h 3a 3 3, 0, 0, 0, 0 -6" transform="rotate(0,118,130)"/><rect x="139" y="127" width="6" height="6" transform="rotate(0,142,130)"/><path d="M 151 127v 6h 6v -3a 3 3, 0, 0, 0, -3 -3" transform="rotate(-90,154,130)"/><rect x="157" y="127" width="6" height="6" transform="rotate(0,160,130)"/><rect x="169" y="127" width="6" height="6" transform="rotate(0,172,130)"/><circle cx="22" cy="136" r="3" transform="rotate(0,22,136)"/><circle cx="34" cy="136" r="3" transform="rotate(0,34,136)"/><path d="M 43 133v 6h 3a 3 3, 0, 0, 0, 0 -6" transform="rotate(180,46,136)"/><rect x="49" y="133" width="6" height="6" transform="rotate(0,52,136)"/><rect x="55" y="133" width="6" height="6" transform="rotate(0,58,136)"/><rect x="61" y="133" width="6" height="6" transform="rotate(0,64,136)"/><rect x="67" y="133" width="6" height="6" transform="rotate(0,70,136)"/><path d="M 85 133v 6h 3a 3 3, 0, 0, 0, 0 -6" transform="rotate(180,88,136)"/><path d="M 91 133v 6h 6v -3a 3 3, 0, 0, 0, -3 -3" transform="rotate(0,94,136)"/><rect x="103" y="133" width="6" height="6" transform="rotate(0,106,136)"/><path d="M 127 133v 6h 3a 3 3, 0, 0, 0, 0 -6" transform="rotate(180,130,136)"/><rect x="133" y="133" width="6" height="6" transform="rotate(0,136,136)"/><rect x="139" y="133" width="6" height="6" transform="rotate(0,142,136)"/><rect x="145" y="133" width="6" height="6" transform="rotate(0,148,136)"/><rect x="151" y="133" width="6" height="6" transform="rotate(0,154,136)"/><rect x="157" y="133" width="6" height="6" transform="rotate(0,160,136)"/><rect x="163" y="133" width="6" height="6" transform="rotate(0,166,136)"/><rect x="169" y="133" width="6" height="6" transform="rotate(0,172,136)"/><rect x="61" y="139" width="6" height="6" transform="rotate(0,64,142)"/><path d="M 67 139v 6h 6v -3a 3 3, 0, 0, 0, -3 -3" transform="rotate(90,70,142)"/><rect x="91" y="139" width="6" height="6" transform="rotate(0,94,142)"/><rect x="97" y="139" width="6" height="6" transform="rotate(0,100,142)"/><path d="M 103 139v 6h 6v -3a 3 3, 0, 0, 0, -3 -3" transform="rotate(90,106,142)"/><path d="M 115 139v 6h 3a 3 3, 0, 0, 0, 0 -6" transform="rotate(180,118,142)"/><path d="M 121 139v 6h 6v -3a 3 3, 0, 0, 0, -3 -3" transform="rotate(0,124,142)"/><rect x="133" y="139" width="6" height="6" transform="rotate(0,136,142)"/><rect x="157" y="139" width="6" height="6" transform="rotate(0,160,142)"/><rect x="163" y="139" width="6" height="6" transform="rotate(0,166,142)"/><rect x="169" y="139" width="6" height="6" transform="rotate(0,172,142)"/><rect x="175" y="139" width="6" height="6" transform="rotate(0,178,142)"/><path d="M 181 139v 6h 3a 3 3, 0, 0, 0, 0 -6" transform="rotate(0,184,142)"/><rect x="61" y="145" width="6" height="6" transform="rotate(0,64,148)"/><path d="M 79 145v 6h 3a 3 3, 0, 0, 0, 0 -6" transform="rotate(180,82,148)"/><rect x="85" y="145" width="6" height="6" transform="rotate(0,88,148)"/><path d="M 91 145v 6h 6v -3a 3 3, 0, 0, 0, -3 -3" transform="rotate(90,94,148)"/><path d="M 109 145v 6h 3a 3 3, 0, 0, 0, 0 -6" transform="rotate(-90,112,148)"/><path d="M 121 145v 6h 6v -3a 3 3, 0, 0, 0, -3 -3" transform="rotate(180,124,148)"/><rect x="127" y="145" width="6" height="6" transform="rotate(0,130,148)"/><rect x="133" y="145" width="6" height="6" transform="rotate(0,136,148)"/><circle cx="148" cy="148" r="3" transform="rotate(0,148,148)"/><rect x="157" y="145" width="6" height="6" transform="rotate(0,160,148)"/><rect x="163" y="145" width="6" height="6" transform="rotate(0,166,148)"/><rect x="175" y="145" width="6" height="6" transform="rotate(0,178,148)"/><path d="M 61 151v 6h 3a 3 3, 0, 0, 0, 0 -6" transform="rotate(90,64,154)"/><path d="M 109 151v 6h 6v -3a 3 3, 0, 0, 0, -3 -3" transform="rotate(180,112,154)"/><path d="M 115 151v 6h 3a 3 3, 0, 0, 0, 0 -6" transform="rotate(0,118,154)"/><rect x="133" y="151" width="6" height="6" transform="rotate(0,136,154)"/><rect x="157" y="151" width="6" height="6" transform="rotate(0,160,154)"/><path d="M 163 151v 6h 6v -3a 3 3, 0, 0, 0, -3 -3" transform="rotate(90,166,154)"/><rect x="175" y="151" width="6" height="6" transform="rotate(0,178,154)"/><path d="M 79 157v 6h 3a 3 3, 0, 0, 0, 0 -6" transform="rotate(-90,82,160)"/><path d="M 97 157v 6h 6v -3a 3 3, 0, 0, 0, -3 -3" transform="rotate(-90,100,160)"/><path d="M 103 157v 6h 3a 3 3, 0, 0, 0, 0 -6" transform="rotate(0,106,160)"/><path d="M 133 157v 6h 6v -3a 3 3, 0, 0, 0, -3 -3" transform="rotate(180,136,160)"/><rect x="139" y="157" width="6" height="6" transform="rotate(0,142,160)"/><rect x="145" y="157" width="6" height="6" transform="rotate(0,148,160)"/><rect x="151" y="157" width="6" height="6" transform="rotate(0,154,160)"/><rect x="157" y="157" width="6" height="6" transform="rotate(0,160,160)"/><path d="M 169 157v 6h 3a 3 3, 0, 0, 0, 0 -6" transform="rotate(180,172,160)"/><rect x="175" y="157" width="6" height="6" transform="rotate(0,178,160)"/><path d="M 181 157v 6h 3a 3 3, 0, 0, 0, 0 -6" transform="rotate(0,184,160)"/><path d="M 61 163v 6h 6v -3a 3 3, 0, 0, 0, -3 -3" transform="rotate(-90,64,166)"/><rect x="67" y="163" width="6" height="6" transform="rotate(0,70,166)"/><rect x="73" y="163" width="6" height="6" transform="rotate(0,76,166)"/><path d="M 79 163v 6h 6v -3a 3 3, 0, 0, 0, -3 -3" transform="rotate(90,82,166)"/><path d="M 91 163v 6h 6v -3a 3 3, 0, 0, 0, -3 -3" transform="rotate(-90,94,166)"/><rect x="97" y="163" width="6" height="6" transform="rotate(0,100,166)"/><path d="M 109 163v 6h 6v -3a 3 3, 0, 0, 0, -3 -3" transform="rotate(-90,112,166)"/><path d="M 115 163v 6h 3a 3 3, 0, 0, 0, 0 -6" transform="rotate(0,118,166)"/><rect x="151" y="163" width="6" height="6" transform="rotate(0,154,166)"/><rect x="157" y="163" width="6" height="6" transform="rotate(0,160,166)"/><path d="M 163 163v 6h 3a 3 3, 0, 0, 0, 0 -6" transform="rotate(0,166,166)"/><path d="M 175 163v 6h 3a 3 3, 0, 0, 0, 0 -6" transform="rotate(90,178,166)"/><path d="M 61 169v 6h 3a 3 3, 0, 0, 0, 0 -6" transform="rotate(90,64,172)"/><rect x="91" y="169" width="6" height="6" transform="rotate(0,94,172)"/><rect x="97" y="169" width="6" height="6" transform="rotate(0,100,172)"/><rect x="103" y="169" width="6" height="6" transform="rotate(0,106,172)"/><rect x="109" y="169" width="6" height="6" transform="rotate(0,112,172)"/><path d="M 133 169v 6h 3a 3 3, 0, 0, 0, 0 -6" transform="rotate(-90,136,172)"/><path d="M 151 169v 6h 3a 3 3, 0, 0, 0, 0 -6" transform="rotate(90,154,172)"/><circle cx="172" cy="172" r="3" transform="rotate(0,172,172)"/><circle cx="184" cy="172" r="3" transform="rotate(0,184,172)"/><path d="M 85 175v 6h 3a 3 3, 0, 0, 0, 0 -6" transform="rotate(180,88,178)"/><path d="M 91 175v 6h 6v -3a 3 3, 0, 0, 0, -3 -3" transform="rotate(90,94,178)"/><rect x="109" y="175" width="6" height="6" transform="rotate(0,112,178)"/><rect x="133" y="175" width="6" height="6" transform="rotate(0,136,178)"/><path d="M 145 175v 6h 3a 3 3, 0, 0, 0, 0 -6" transform="rotate(-90,148,178)"/><path d="M 157 175v 6h 3a 3 3, 0, 0, 0, 0 -6" transform="rotate(180,160,178)"/><path d="M 163 175v 6h 6v -3a 3 3, 0, 0, 0, -3 -3" transform="rotate(0,166,178)"/><path d="M 175 175v 6h 3a 3 3, 0, 0, 0, 0 -6" transform="rotate(-90,178,178)"/><path d="M 61 181v 6h 3a 3 3, 0, 0, 0, 0 -6" transform="rotate(180,64,184)"/><rect x="67" y="181" width="6" height="6" transform="rotate(0,70,184)"/><rect x="73" y="181" width="6" height="6" transform="rotate(0,76,184)"/><path d="M 79 181v 6h 3a 3 3, 0, 0, 0, 0 -6" transform="rotate(0,82,184)"/><path d="M 97 181v 6h 3a 3 3, 0, 0, 0, 0 -6" transform="rotate(180,100,184)"/><rect x="103" y="181" width="6" height="6" transform="rotate(0,106,184)"/><rect x="109" y="181" width="6" height="6" transform="rotate(0,112,184)"/><path d="M 115 181v 6h 3a 3 3, 0, 0, 0, 0 -6" transform="rotate(0,118,184)"/><path d="M 127 181v 6h 3a 3 3, 0, 0, 0, 0 -6" transform="rotate(180,130,184)"/><path d="M 133 181v 6h 6v -3a 3 3, 0, 0, 0, -3 -3" transform="rotate(90,136,184)"/><path d="M 145 181v 6h 3a 3 3, 0, 0, 0, 0 -6" transform="rotate(90,148,184)"/><path d="M 163 181v 6h 3a 3 3, 0, 0, 0, 0 -6" transform="rotate(90,166,184)"/><path d="M 175 181v 6h 3a 3 3, 0, 0, 0, 0 -6" transform="rotate(90,178,184)"/></clipPath><clipPath id="clip-path-corners-square-color-0-0-0"><path clip-rule="evenodd" d="M 13 28v 12a 15 15, 0, 0, 0, 15 15h 12a 15 15, 0, 0, 0, 15 -15v -12a 15 15, 0, 0, 0, -15 -15h -12a 15 15, 0, 0, 0, -15 15M 28 19h 12a 9 9, 0, 0, 1, 9 9v 12a 9 9, 0, 0, 1, -9 9h -12a 9 9, 0, 0, 1, -9 -9v -12a 9 9, 0, 0, 1, 9 -9" transform="rotate(0,34,34)"/></clipPath><clipPath id="clip-path-corners-dot-color-0-0-0"><circle cx="34" cy="34" r="9" transform="rotate(0,34,34)"/></clipPath><clipPath id="clip-path-corners-square-color-1-0-0"><path clip-rule="evenodd" d="M 145 28v 12a 15 15, 0, 0, 0, 15 15h 12a 15 15, 0, 0, 0, 15 -15v -12a 15 15, 0, 0, 0, -15 -15h -12a 15 15, 0, 0, 0, -15 15M 160 19h 12a 9 9, 0, 0, 1, 9 9v 12a 9 9, 0, 0, 1, -9 9h -12a 9 9, 0, 0, 1, -9 -9v -12a 9 9, 0, 0, 1, 9 -9" transform="rotate(90,166,34)"/></clipPath><clipPath id="clip-path-corners-dot-color-1-0-0"><circle cx="166" cy="34" r="9" transform="rotate(90,166,34)"/></clipPath><clipPath id="clip-path-corners-square-color-0-1-0"><path clip-rule="evenodd" d="M 13 160v 12a 15 15, 0, 0, 0, 15 15h 12a 15 15, 0, 0, 0, 15 -15v -12a 15 15, 0, 0, 0, -15 -15h -12a 15 15, 0, 0, 0, -15 15M 28 151h 12a 9 9, 0, 0, 1, 9 9v 12a 9 9, 0, 0, 1, -9 9h -12a 9 9, 0, 0, 1, -9 -9v -12a 9 9, 0, 0, 1, 9 -9" transform="rotate(-90,34,166)"/></clipPath><clipPath id="clip-path-corners-dot-color-0-1-0"><circle cx="34" cy="166" r="9" transform="rotate(-90,34,166)"/></clipPath></defs><rect x="0" y="0" height="200" width="200" clip-path="url('#clip-path-background-color-0')" fill="transparent"/><rect x="0" y="0" height="200" width="200" clip-path="url('#clip-path-dot-color-0')" fill="#1a2e3b"/><rect x="13" y="13" height="42" width="42" clip-path="url('#clip-path-corners-square-color-0-0-0')" fill="#E07830"/><rect x="25" y="25" height="18" width="18" clip-path="url('#clip-path-corners-dot-color-0-0-0')" fill="#1a2e3b"/><rect x="145" y="13" height="42" width="42" clip-path="url('#clip-path-corners-square-color-1-0-0')" fill="#E07830"/><rect x="157" y="25" height="18" width="18" clip-path="url('#clip-path-corners-dot-color-1-0-0')" fill="#1a2e3b"/><rect x="13" y="145" height="42" width="42" clip-path="url('#clip-path-corners-square-color-0-1-0')" fill="#E07830"/><rect x="25" y="157" height="18" width="18" clip-path="url('#clip-path-corners-dot-color-0-1-0')" fill="#1a2e3b"/></svg>