<?xml version="1.0" standalone="no"?>
<svg xmlns="http://www.w3.org/2000/svg" width="200" height="200" xmlns:xlink="http://www.w3.org/1999/xlink" viewBox="0 0 200 200"><defs><clipPath id="clip-path-background-color-0"><rect x="0" y="0" width="200" height="200"/></clipPath><clipPath id="clip-path-dot-color-0"><path d="M 57 17v 5h 2.5a 2.5 2.5, 0, 0, 0, 0 -5" transform="rotate(-90,59.5,19.5)"/><path d="M 67 17v 5h 2.5a 2.5 2.5, 0, 0, 0, 0 -5" transform="rotate(180,69.5,19.5)"/><rect x="72" y="17" width="5" height="5" transform="rotate(0,74.5,19.5)"/><path d="M 77 17v 5h 2.5a 2.5 2.5, 0, 0, 0, 0 -5" transform="rotate(0,79.5,19.5)"/><path d="M 87 17v 5h 2.5a 2.5 2.5, 0, 0, 0, 0 -5" transform="rotate(-90,89.5,19.5)"/><path d="M 97 17v 5h 2.5a 2.5 2.5, 0, 0, 0, 0 -5" transform="rotate(-90,99.5,19.5)"/><path d="M 112 17v 5h 2.5a 2.5 2.5, 0, 0, 0, 0 -5" transform="rotate(180,114.5,19.5)"/><rect x="117" y="17" width="5" height="5" transform="rotate(0,119.5,19.5)"/><rect x="122" y="17" width="5" height="5" transform="rotate(0,124.5,19.5)"/><rect x="127" y="17" width="5" height="5" transform="rotate(0,129.5,19.5)"/><path d="M 132 17v 5h 5v -2.5a 2.5 2.5, 0, 0, 0, -2.5 -2.5" transform="rotate(0,134.5,19.5)"/><path d="M 57 22v 5h 2.5a 2.5 2.5, 0, 0, 0, 0 -5" transform="rotate(90,59.5,24.5)"/><rect x="72" y="22" width="5" height="5" transform="rotate(0,74.5,24.5)"/><rect x="87" y="22" width="5" height="5" transform="rotate(0,89.5,24.5)"/><path d="M 97 22v 5h 5v -2.5a 2.5 2.5, 0, 0, 0, -2.5 -2.5" transform="rotate(180,99.5,24.5)"/><path d="M 102 22v 5h 2.5a 2.5 2.5, 0, 0, 0, 0 -5" transform="rotate(0,104.5,24.5)"/><path d="M 132 22v 5h 5v -2.5a 2.5 2.5, 0, 0, 0, -2.5 -2.5" transform="rotate(180,134.5,24.5)"/><path d="M 137 22v 5h 2.5a 2.5 2.5, 0, 0, 0, 0 -5" transform="rotate(0,139.5,24.5)"/><rect x="72" y="27" width="5" height="5" transform="rotate(0,74.5,29.5)"/><rect x="77" y="27" width="5" height="5" transform="rotate(0,79.5,29.5)"/><rect x="82" y="27" width="5" height="5" transform="rotate(0,84.5,29.5)"/><rect x="87" y="27" width="5" height="5" transform="rotate(0,89.5,29.5)"/><path d="M 92 27v 5h 2.5a 2.5 2.5, 0, 0, 0, 0 -5" transform="rotate(0,94.5,29.5)"/><path d="M 107 27v 5h 5v -2.5a 2.5 2.5, 0, 0, 0, -2.5 -2.5" transform="rotate(-90,109.5,29.5)"/><path d="M 112 27v 5h 5v -2.5a 2.5 2.5, 0, 0, 0, -2.5 -2.5" transform="rotate(0,114.5,29.5)"/><path d="M 57 32v 5h 2.5a 2.5 2.5, 0, 0, 0, 0 -5" transform="rotate(180,59.5,34.5)"/><rect x="62" y="32" width="5" height="5" transform="rotate(0,64.5,34.5)"/><rect x="67" y="32" width="5" height="5" transform="rotate(0,69.5,34.5)"/><rect x="72" y="32" width="5" height="5" transform="rotate(0,74.5,34.5)"/><path d="M 77 32v 5h 5v -2.5a 2.5 2.5, 0, 0, 0, -2.5 -2.5" transform="rotate(90,79.5,34.5)"/><rect x="107" y="32" width="5" height="5" transform="rotate(0,109.5,34.5)"/><path d="M 112 32v 5h 5v -2.5a 2.5 2.5, 0, 0, 0, -2.5 -2.5" transform="rotate(90,114.5,34.5)"/><circle cx="124.5" cy="34.5" r="2.5" transform="rotate(0,124.5,34.5)"/><path d="M 132 32v 5h 5v -2.5a 2.5 2.5, 0, 0, 0, -2.5 -2.5" transform="rotate(-90,134.5,34.5)"/><path d="M 137 32v 5h 5v -2.5a 2.5 2.5, 0, 0, 0, -2.5 -2.5" transform="rotate(0,139.5,34.5)"/><rect x="62" y="37" width="5" height="5" transform="rotate(0,64.5,39.5)"/><path d="M 72 37v 5h 2.5a 2.5 2.5, 0, 0, 0, 0 -5" transform="rotate(90,74.5,39.5)"/><path d="M 97 37v 5h 5v -2.5a 2.5 2.5, 0, 0, 0, -2.5 -2.5" transform="rotate(-90,99.5,39.5)"/><rect x="102" y="37" width="5" height="5" transform="rotate(0,104.5,39.5)"/><rect x="107" y="37" width="5" height="5" transform="rotate(0,109.5,39.5)"/><path d="M 127 37v 5h 5v -2.5a 2.5 2.5, 0, 0, 0, -2.5 -2.5" transform="rotate(-90,129.5,39.5)"/><rect x="132" y="37" width="5" height="5" transform="rotate(0,134.5,39.5)"/><path d="M 137 37v 5h 5v -2.5a 2.5 2.5, 0, 0, 0, -2.5 -2.5" transform="rotate(90,139.5,39.5)"/><path d="M 62 42v 5h 2.5a 2.5 2.5, 0, 0, 0, 0 -5" transform="rotate(90,64.5,44.5)"/><path d="M 82 42v 5h 2.5a 2.5 2.5, 0, 0, 0, 0 -5" transform="rotate(180,84.5,44.5)"/><rect x="87" y="42" width="5" height="5" transform="rotate(0,89.5,44.5)"/><rect x="92" y="42" width="5" height="5" transform="rotate(0,94.5,44.5)"/><rect x="97" y="42" width="5" height="5" transform="rotate(0,99.5,44.5)"/><rect x="107" y="42" width="5" height="5" transform="rotate(0,109.5,44.5)"/><path d="M 122 42v 5h 2.5a 2.5 2.5, 0, 0, 0, 0 -5" transform="rotate(180,124.5,44.5)"/><rect x="127" y="42" width="5" height="5" transform="rotate(0,129.5,44.5)"/><path d="M 132 42v 5h 5v -2.5a 2.5 2.5, 0, 0, 0, -2.5 -2.5" transform="rotate(90,134.5,44.5)"/><path d="M 57 47v 5h 2.5a 2.5 2.5, 0, 0, 0, 0 -5" transform="rotate(-90,59.5,49.5)"/><circle cx="69.5" cy="49.5" r="2.5" transform="rotate(0,69.5,49.5)"/><circle cx="79.5" cy="49.5" r="2.5" transform="rotate(0,79.5,49.5)"/><rect x="87" y="47" width="5" height="5" transform="rotate(0,89.5,49.5)"/><rect x="97" y="47" width="5" height="5" transform="rotate(0,99.5,49.5)"/><path d="M 107 47v 5h 2.5a 2.5 2.5, 0, 0, 0, 0 -5" transform="rotate(90,109.5,49.5)"/><circle cx="119.5" cy="49.5" r="2.5" transform="rotate(0,119.5,49.5)"/><path d="M 127 47v 5h 2.5a 2.5 2.5, 0, 0, 0, 0 -5" transform="rotate(90,129.5,49.5)"/><path d="M 137 47v 5h 2.5a 2.5 2.5, 0, 0, 0, 0 -5" transform="rotate(-90,139.5,49.5)"/><path d="M 57 52v 5h 2.5a 2.5 2.5, 0, 0, 0, 0 -5" transform="rotate(90,59.5,54.5)"/><circle cx="74.5" cy="54.5" r="2.5" transform="rotate(0,74.5,54.5)"/><rect x="87" y="52" width="5" height="5" transform="rotate(0,89.5,54.5)"/><rect x="92" y="52" width="5" height="5" transform="rotate(0,94.5,54.5)"/><rect x="97" y="52" width="5" height="5" transform="rotate(0,99.5,54.5)"/><path d="M 102 52v 5h 5v -2.5a 2.5 2.5, 0, 0, 0, -2.5 -2.5" transform="rotate(0,104.5,54.5)"/><circle cx="114.5" cy="54.5" r="2.5" transform="rotate(0,114.5,54.5)"/><rect x="137" y="52" width="5" height="5" transform="rotate(0,139.5,54.5)"/><path d="M 17 57v 5h 2.5a 2.5 2.5, 0, 0, 0, 0 -5" transform="rotate(-90,19.5,59.5)"/><path d="M 27 57v 5h 5v -2.5a 2.5 2.5, 0, 0, 0, -2.5 -2.5" transform="rotate(-90,29.5,59.5)"/><path d="M 32 57v 5h 2.5a 2.5 2.5, 0, 0, 0, 0 -5" transform="rotate(0,34.5,59.5)"/><path d="M 42 57v 5h 2.5a 2.5 2.5, 0, 0, 0, 0 -5" transform="rotate(180,44.5,59.5)"/><rect x="47" y="57" width="5" height="5" transform="rotate(0,49.5,59.5)"/><path d="M 52 57v 5h 2.5a 2.5 2.5, 0, 0, 0, 0 -5" transform="rotate(0,54.5,59.5)"/><circle cx="64.5" cy="59.5" r="2.5" transform="rotate(0,64.5,59.5)"/><path d="M 87 57v 5h 5v -2.5a 2.5 2.5, 0, 0, 0, -2.5 -2.5" transform="rotate(180,89.5,59.5)"/><rect x="92" y="57" width="5" height="5" transform="rotate(0,94.5,59.5)"/><rect x="97" y="57" width="5" height="5" transform="rotate(0,99.5,59.5)"/><rect x="102" y="57" width="5" height="5" transform="rotate(0,104.5,59.5)"/><path d="M 107 57v 5h 5v -2.5a 2.5 2.5, 0, 0, 0, -2.5 -2.5" transform="rotate(0,109.5,59.5)"/><circle cx="124.5" cy="59.5" r="2.5" transform="rotate(0,124.5,59.5)"/><path d="M 132 57v 5h 5v -2.5a 2.5 2.5, 0, 0, 0, -2.5 -2.5" transform="rotate(-90,134.5,59.5)"/><path d="M 137 57v 5h 5v -2.5a 2.5 2.5, 0, 0, 0, -2.5 -2.5" transform="rotate(90,139.5,59.5)"/><path d="M 147 57v 5h 2.5a 2.5 2.5, 0, 0, 0, 0 -5" transform="rotate(-90,149.5,59.5)"/><path d="M 162 57v 5h 2.5a 2.5 2.5, 0, 0, 0, 0 -5" transform="rotate(-90,164.5,59.5)"/><path d="M 172 57v 5h 2.5a 2.5 2.5, 0, 0, 0, 0 -5" transform="rotate(180,174.5,59.5)"/><path d="M 177 57v 5h 5v -2.5a 2.5 2.5, 0, 0, 0, -2.5 -2.5" transform="rotate(0,179.5,59.5)"/><path d="M 17 62v 5h 2.5a 2.5 2.5, 0, 0, 0, 0 -5" transform="rotate(90,19.5,64.5)"/><path d="M 27 62v 5h 2.5a 2.5 2.5, 0, 0, 0, 0 -5" transform="rotate(90,29.5,64.5)"/><path d="M 37 62v 5h 2.5a 2.5 2.5, 0, 0, 0, 0 -5" transform="rotate(-90,39.5,64.5)"/><path d="M 82 62v 5h 2.5a 2.5 2.5, 0, 0, 0, 0 -5" transform="rotate(-90,84.5,64.5)"/><path d="M 102 62v 5h 5v -2.5a 2.5 2.5, 0, 0, 0, -2.5 -2.5" transform="rotate(180,104.5,64.5)"/><rect x="107" y="62" width="5" height="5" transform="rotate(0,109.5,64.5)"/><rect x="112" y="62" width="5" height="5" transform="rotate(0,114.5,64.5)"/><path d="M 117 62v 5h 2.5a 2.5 2.5, 0, 0, 0, 0 -5" transform="rotate(0,119.5,64.5)"/><path d="M 127 62v 5h 5v -2.5a 2.5 2.5, 0, 0, 0, -2.5 -2.5" transform="rotate(-90,129.5,64.5)"/><rect x="132" y="62" width="5" height="5" transform="rotate(0,134.5,64.5)"/><rect x="147" y="62" width="5" height="5" transform="rotate(0,149.5,64.5)"/><path d="M 152 62v 5h 5v -2.5a 2.5 2.5, 0, 0, 0, -2.5 -2.5" transform="rotate(0,154.5,64.5)"/><rect x="162" y="62" width="5" height="5" transform="rotate(0,164.5,64.5)"/><path d="M 167 62v 5h 2.5a 2.5 2.5, 0, 0, 0, 0 -5" transform="rotate(0,169.5,64.5)"/><rect x="177" y="62" width="5" height="5" transform="rotate(0,179.5,64.5)"/><path d="M 32 67v 5h 2.5a 2.5 2.5, 0, 0, 0, 0 -5" transform="rotate(180,34.5,69.5)"/><rect x="37" y="67" width="5" height="5" transform="rotate(0,39.5,69.5)"/><rect x="42" y="67" width="5" height="5" transform="rotate(0,44.5,69.5)"/><path d="M 47 67v 5h 2.5a 2.5 2.5, 0, 0, 0, 0 -5" transform="rotate(0,49.5,69.5)"/><path d="M 57 67v 5h 2.5a 2.5 2.5, 0, 0, 0, 0 -5" transform="rotate(-90,59.5,69.5)"/><circle cx="69.5" cy="69.5" r="2.5" transform="rotate(0,69.5,69.5)"/><path d="M 77 67v 5h 2.5a 2.5 2.5, 0, 0, 0, 0 -5" transform="rotate(180,79.5,69.5)"/><path d="M 82 67v 5h 5v -2.5a 2.5 2.5, 0, 0, 0, -2.5 -2.5" transform="rotate(90,84.5,69.5)"/><circle cx="99.5" cy="69.5" r="2.5" transform="rotate(0,99.5,69.5)"/><path d="M 107 67v 5h 2.5a 2.5 2.5, 0, 0, 0, 0 -5" transform="rotate(90,109.5,69.5)"/><path d="M 122 67v 5h 5v -2.5a 2.5 2.5, 0, 0, 0, -2.5 -2.5" transform="rotate(-90,124.5,69.5)"/><rect x="127" y="67" width="5" height="5" transform="rotate(0,129.5,69.5)"/><rect x="132" y="67" width="5" height="5" transform="rotate(0,134.5,69.5)"/><rect x="147" y="67" width="5" height="5" transform="rotate(0,149.5,69.5)"/><rect x="152" y="67" width="5" height="5" transform="rotate(0,154.5,69.5)"/><rect x="157" y="67" width="5" height="5" transform="rotate(0,159.5,69.5)"/><rect x="162" y="67" width="5" height="5" transform="rotate(0,164.5,69.5)"/><path d="M 172 67v 5h 5v -2.5a 2.5 2.5, 0, 0, 0, -2.5 -2.5" transform="rotate(-90,174.5,69.5)"/><rect x="177" y="67" width="5" height="5" transform="rotate(0,179.5,69.5)"/><path d="M 37 72v 5h 5v -2.5a 2.5 2.5, 0, 0, 0, -2.5 -2.5" transform="rotate(180,39.5,74.5)"/><rect x="42" y="72" width="5" height="5" transform="rotate(0,44.5,74.5)"/><path d="M 57 72v 5h 2.5a 2.5 2.5, 0, 0, 0, 0 -5" transform="rotate(90,59.5,74.5)"/><circle cx="94.5" cy="74.5" r="2.5" transform="rotate(0,94.5,74.5)"/><circle cx="104.5" cy="74.5" r="2.5" transform="rotate(0,104.5,74.5)"/><path d="M 117 72v 5h 5v -2.5a 2.5 2.5, 0, 0, 0, -2.5 -2.5" transform="rotate(-90,119.5,74.5)"/><rect x="122" y="72" width="5" height="5" transform="rotate(0,124.5,74.5)"/><rect x="127" y="72" width="5" height="5" transform="rotate(0,129.5,74.5)"/><rect x="132" y="72" width="5" height="5" transform="rotate(0,134.5,74.5)"/><rect x="137" y="72" width="5" height="5" transform="rotate(0,139.5,74.5)"/><rect x="142" y="72" width="5" height="5" transform="rotate(0,144.5,74.5)"/><rect x="147" y="72" width="5" height="5" transform="rotate(0,149.5,74.5)"/><path d="M 152 72v 5h 5v -2.5a 2.5 2.5, 0, 0, 0, -2.5 -2.5" transform="rotate(90,154.5,74.5)"/><rect x="162" y="72" width="5" height="5" transform="rotate(0,164.5,74.5)"/><path d="M 172 72v 5h 5v -2.5a 2.5 2.5, 0, 0, 0, -2.5 -2.5" transform="rotate(180,174.5,74.5)"/><path d="M 177 72v 5h 5v -2.5a 2.5 2.5, 0, 0, 0, -2.5 -2.5" transform="rotate(90,179.5,74.5)"/><path d="M 17 77v 5h 5v -2.5a 2.5 2.5, 0, 0, 0, -2.5 -2.5" transform="rotate(-90,19.5,79.5)"/><path d="M 22 77v 5h 5v -2.5a 2.5 2.5, 0, 0, 0, -2.5 -2.5" transform="rotate(0,24.5,79.5)"/><path d="M 42 77v 5h 5v -2.5a 2.5 2.5, 0, 0, 0, -2.5 -2.5" transform="rotate(180,44.5,79.5)"/><rect x="47" y="77" width="5" height="5" transform="rotate(0,49.5,79.5)"/><path d="M 52 77v 5h 5v -2.5a 2.5 2.5, 0, 0, 0, -2.5 -2.5" transform="rotate(0,54.5,79.5)"/><path d="M 62 77v 5h 5v -2.5a 2.5 2.5, 0, 0, 0, -2.5 -2.5" transform="rotate(-90,64.5,79.5)"/><path d="M 67 77v 5h 5v -2.5a 2.5 2.5, 0, 0, 0, -2.5 -2.5" transform="rotate(0,69.5,79.5)"/><circle cx="79.5" cy="79.5" r="2.5" transform="rotate(0,79.5,79.5)"/><path d="M 87 77v 5h 2.5a 2.5 2.5, 0, 0, 0, 0 -5" transform="rotate(-90,89.5,79.5)"/><circle cx="99.5" cy="79.5" r="2.5" transform="rotate(0,99.5,79.5)"/><rect x="117" y="77" width="5" height="5" transform="rotate(0,119.5,79.5)"/><rect x="122" y="77" width="5" height="5" transform="rotate(0,124.5,79.5)"/><path d="M 127 77v 5h 5v -2.5a 2.5 2.5, 0, 0, 0, -2.5 -2.5" transform="rotate(90,129.5,79.5)"/><path d="M 137 77v 5h 5v -2.5a 2.5 2.5, 0, 0, 0, -2.5 -2.5" transform="rotate(180,139.5,79.5)"/><path d="M 142 77v 5h 5v -2.5a 2.5 2.5, 0, 0, 0, -2.5 -2.5" transform="rotate(90,144.5,79.5)"/><path d="M 157 77v 5h 2.5a 2.5 2.5, 0, 0, 0, 0 -5" transform="rotate(180,159.5,79.5)"/><rect x="162" y="77" width="5" height="5" transform="rotate(0,164.5,79.5)"/><rect x="17" y="82" width="5" height="5" transform="rotate(0,19.5,84.5)"/><rect x="22" y="82" width="5" height="5" transform="rotate(0,24.5,84.5)"/><rect x="27" y="82" width="5" height="5" transform="rotate(0,29.5,84.5)"/><rect x="32" y="82" width="5" height="5" transform="rotate(0,34.5,84.5)"/><path d="M 37 82v 5h 2.5a 2.5 2.5, 0, 0, 0, 0 -5" transform="rotate(0,39.5,84.5)"/><rect x="52" y="82" width="5" height="5" transform="rotate(0,54.5,84.5)"/><path d="M 62 82v 5h 5v -2.5a 2.5 2.5, 0, 0, 0, -2.5 -2.5" transform="rotate(180,64.5,84.5)"/><path d="M 67 82v 5h 5v -2.5a 2.5 2.5, 0, 0, 0, -2.5 -2.5" transform="rotate(90,69.5,84.5)"/><rect x="87" y="82" width="5" height="5" transform="rotate(0,89.5,84.5)"/><rect x="117" y="82" width="5" height="5" transform="rotate(0,119.5,84.5)"/><circle cx="134.5" cy="84.5" r="2.5" transform="rotate(0,134.5,84.5)"/><path d="M 152 82v 5h 2.5a 2.5 2.5, 0, 0, 0, 0 -5" transform="rotate(-90,154.5,84.5)"/><rect x="162" y="82" width="5" height="5" transform="rotate(0,164.5,84.5)"/><circle cx="174.5" cy="84.5" r="2.5" transform="rotate(0,174.5,84.5)"/><path d="M 17 87v 5h 5v -2.5a 2.5 2.5, 0, 0, 0, -2.5 -2.5" transform="rotate(180,19.5,89.5)"/><rect x="22" y="87" width="5" height="5" transform="rotate(0,24.5,89.5)"/><path d="M 27 87v 5h 5v -2.5a 2.5 2.5, 0, 0, 0, -2.5 -2.5" transform="rotate(90,29.5,89.5)"/><path d="M 42 87v 5h 2.5a 2.5 2.5, 0, 0, 0, 0 -5" transform="rotate(180,44.5,89.5)"/><rect x="47" y="87" width="5" height="5" transform="rotate(0,49.5,89.5)"/><rect x="52" y="87" width="5" height="5" transform="rotate(0,54.5,89.5)"/><circle cx="79.5" cy="89.5" r="2.5" transform="rotate(0,79.5,89.5)"/><rect x="87" y="87" width="5" height="5" transform="rotate(0,89.5,89.5)"/><path d="M 112 87v 5h 2.5a 2.5 2.5, 0, 0, 0, 0 -5" transform="rotate(180,114.5,89.5)"/><path d="M 117 87v 5h 5v -2.5a 2.5 2.5, 0, 0, 0, -2.5 -2.5" transform="rotate(90,119.5,89.5)"/><path d="M 147 87v 5h 5v -2.5a 2.5 2.5, 0, 0, 0, -2.5 -2.5" transform="rotate(-90,149.5,89.5)"/><rect x="152" y="87" width="5" height="5" transform="rotate(0,154.5,89.5)"/><rect x="157" y="87" width="5" height="5" transform="rotate(0,159.5,89.5)"/><rect x="162" y="87" width="5" height="5" transform="rotate(0,164.5,89.5)"/><rect x="22" y="92" width="5" height="5" transform="rotate(0,24.5,94.5)"/><path d="M 32 92v 5h 2.5a 2.5 2.5, 0, 0, 0, 0 -5" transform="rotate(180,34.5,94.5)"/><path d="M 37 92v 5h 2.5a 2.5 2.5, 0, 0, 0, 0 -5" transform="rotate(0,39.5,94.5)"/><path d="M 52 92v 5h 2.5a 2.5 2.5, 0, 0, 0, 0 -5" transform="rotate(90,54.5,94.5)"/><circle cx="69.5" cy="94.5" r="2.5" transform="rotate(0,69.5,94.5)"/><path d="M 82 92v 5h 5v -2.5a 2.5 2.5, 0, 0, 0, -2.5 -2.5" transform="rotate(-90,84.5,94.5)"/><rect x="87" y="92" width="5" height="5" transform="rotate(0,89.5,94.5)"/><path d="M 92 92v 5h 2.5a 2.5 2.5, 0, 0, 0, 0 -5" transform="rotate(0,94.5,94.5)"/><path d="M 107 92v 5h 2.5a 2.5 2.5, 0, 0, 0, 0 -5" transform="rotate(-90,109.5,94.5)"/><path d="M 122 92v 5h 2.5a 2.5 2.5, 0, 0, 0, 0 -5" transform="rotate(-90,124.5,94.5)"/><path d="M 142 92v 5h 5v -2.5a 2.5 2.5, 0, 0, 0, -2.5 -2.5" transform="rotate(-90,144.5,94.5)"/><rect x="147" y="92" width="5" height="5" transform="rotate(0,149.5,94.5)"/><path d="M 152 92v 5h 5v -2.5a 2.5 2.5, 0, 0, 0, -2.5 -2.5" transform="rotate(90,154.5,94.5)"/><rect x="162" y="92" width="5" height="5" transform="rotate(0,164.5,94.5)"/><path d="M 167 92v 5h 5v -2.5a 2.5 2.5, 0, 0, 0, -2.5 -2.5" transform="rotate(0,169.5,94.5)"/><path d="M 22 97v 5h 5v -2.5a 2.5 2.5, 0, 0, 0, -2.5 -2.5" transform="rotate(180,24.5,99.5)"/><path d="M 27 97v 5h 5v -2.5a 2.5 2.5, 0, 0, 0, -2.5 -2.5" transform="rotate(0,29.5,99.5)"/><path d="M 42 97v 5h 2.5a 2.5 2.5, 0, 0, 0, 0 -5" transform="rotate(180,44.5,99.5)"/><path d="M 47 97v 5h 2.5a 2.5 2.5, 0, 0, 0, 0 -5" transform="rotate(0,49.5,99.5)"/><path d="M 62 97v 5h 2.5a 2.5 2.5, 0, 0, 0, 0 -5" transform="rotate(-90,64.5,99.5)"/><path d="M 72 97v 5h 2.5a 2.5 2.5, 0, 0, 0, 0 -5" transform="rotate(-90,74.5,99.5)"/><path d="M 82 97v 5h 2.5a 2.5 2.5, 0, 0, 0, 0 -5" transform="rotate(90,84.5,99.5)"/><rect x="107" y="97" width="5" height="5" transform="rotate(0,109.5,99.5)"/><path d="M 117 97v 5h 5v -2.5a 2.5 2.5, 0, 0, 0, -2.5 -2.5" transform="rotate(-90,119.5,99.5)"/><rect x="122" y="97" width="5" height="5" transform="rotate(0,124.5,99.5)"/><rect x="127" y="97" width="5" height="5" transform="rotate(0,129.5,99.5)"/><rect x="132" y="97" width="5" height="5" transform="rotate(0,134.5,99.5)"/><rect x="137" y="97" width="5" height="5" transform="rotate(0,139.5,99.5)"/><rect x="142" y="97" width="5" height="5" transform="rotate(0,144.5,99.5)"/><rect x="147" y="97" width="5" height="5" transform="rotate(0,149.5,99.5)"/><path d="M 157 97v 5h 5v -2.5a 2.5 2.5, 0, 0, 0, -2.5 -2.5" transform="rotate(-90,159.5,99.5)"/><rect x="162" y="97" width="5" height="5" transform="rotate(0,164.5,99.5)"/><path d="M 167 97v 5h 5v -2.5a 2.5 2.5, 0, 0, 0, -2.5 -2.5" transform="rotate(90,169.5,99.5)"/><rect x="27" y="102" width="5" height="5" transform="rotate(0,29.5,104.5)"/><path d="M 52 102v 5h 2.5a 2.5 2.5, 0, 0, 0, 0 -5" transform="rotate(-90,54.5,104.5)"/><rect x="62" y="102" width="5" height="5" transform="rotate(0,64.5,104.5)"/><path d="M 72 102v 5h 2.5a 2.5 2.5, 0, 0, 0, 0 -5" transform="rotate(90,74.5,104.5)"/><path d="M 92 102v 5h 2.5a 2.5 2.5, 0, 0, 0, 0 -5" transform="rotate(-90,94.5,104.5)"/><rect x="107" y="102" width="5" height="5" transform="rotate(0,109.5,104.5)"/><path d="M 117 102v 5h 2.5a 2.5 2.5, 0, 0, 0, 0 -5" transform="rotate(90,119.5,104.5)"/><path d="M 127 102v 5h 5v -2.5a 2.5 2.5, 0, 0, 0, -2.5 -2.5" transform="rotate(180,129.5,104.5)"/><rect x="132" y="102" width="5" height="5" transform="rotate(0,134.5,104.5)"/><rect x="137" y="102" width="5" height="5" transform="rotate(0,139.5,104.5)"/><rect x="142" y="102" width="5" height="5" transform="rotate(0,144.5,104.5)"/><rect x="147" y="102" width="5" height="5" transform="rotate(0,149.5,104.5)"/><rect x="157" y="102" width="5" height="5" transform="rotate(0,159.5,104.5)"/><path d="M 162 102v 5h 5v -2.5a 2.5 2.5, 0, 0, 0, -2.5 -2.5" transform="rotate(90,164.5,104.5)"/><path d="M 27 107v 5h 5v -2.5a 2.5 2.5, 0, 0, 0, -2.5 -2.5" transform="rotate(180,29.5,109.5)"/><rect x="32" y="107" width="5" height="5" transform="rotate(0,34.5,109.5)"/><path d="M 37 107v 5h 5v -2.5a 2.5 2.5, 0, 0, 0, -2.5 -2.5" transform="rotate(0,39.5,109.5)"/><path d="M 47 107v 5h 2.5a 2.5 2.5, 0, 0, 0, 0 -5" transform="rotate(180,49.5,109.5)"/><rect x="52" y="107" width="5" height="5" transform="rotate(0,54.5,109.5)"/><rect x="57" y="107" width="5" height="5" transform="rotate(0,59.5,109.5)"/><rect x="62" y="107" width="5" height="5" transform="rotate(0,64.5,109.5)"/><path d="M 67 107v 5h 5v -2.5a 2.5 2.5, 0, 0, 0, -2.5 -2.5" transform="rotate(0,69.5,109.5)"/><path d="M 82 107v 5h 5v -2.5a 2.5 2.5, 0, 0, 0, -2.5 -2.5" transform="rotate(-90,84.5,109.5)"/><rect x="87" y="107" width="5" height="5" transform="rotate(0,89.5,109.5)"/><rect x="92" y="107" width="5" height="5" transform="rotate(0,94.5,109.5)"/><path d="M 97 107v 5h 2.5a 2.5 2.5, 0, 0, 0, 0 -5" transform="rotate(0,99.5,109.5)"/><rect x="107" y="107" width="5" height="5" transform="rotate(0,109.5,109.5)"/><circle cx="124.5" cy="109.5" r="2.5" transform="rotate(0,124.5,109.5)"/><rect x="137" y="107" width="5" height="5" transform="rotate(0,139.5,109.5)"/><rect x="142" y="107" width="5" height="5" transform="rotate(0,144.5,109.5)"/><rect x="147" y="107" width="5" height="5" transform="rotate(0,149.5,109.5)"/><rect x="152" y="107" width="5" height="5" transform="rotate(0,154.5,109.5)"/><rect x="157" y="107" width="5" height="5" transform="rotate(0,159.5,109.5)"/><path d="M 167 107v 5h 2.5a 2.5 2.5, 0, 0, 0, 0 -5" transform="rotate(180,169.5,109.5)"/><path d="M 172 107v 5h 5v -2.5a 2.5 2.5, 0, 0, 0, -2.5 -2.5" transform="rotate(0,174.5,109.5)"/><path d="M 17 112v 5h 5v -2.5a 2.5 2.5, 0, 0, 0, -2.5 -2.5" transform="rotate(-90,19.5,114.5)"/><path d="M 22 112v 5h 5v -2.5a 2.5 2.5, 0, 0, 0, -2.5 -2.5" transform="rotate(0,24.5,114.5)"/><path d="M 32 112v 5h 5v -2.5a 2.5 2.5, 0, 0, 0, -2.5 -2.5" transform="rotate(180,34.5,114.5)"/><path d="M 37 112v 5h 5v -2.5a 2.5 2.5, 0, 0, 0, -2.5 -2.5" transform="rotate(90,39.5,114.5)"/><rect x="57" y="112" width="5" height="5" transform="rotate(0,59.5,114.5)"/><path d="M 67 112v 5h 2.5a 2.5 2.5, 0, 0, 0, 0 -5" transform="rotate(90,69.5,114.5)"/><path d="M 82 112v 5h 5v -2.5a 2.5 2.5, 0, 0, 0, -2.5 -2.5" transform="rotate(180,84.5,114.5)"/><path d="M 87 112v 5h 5v -2.5a 2.5 2.5, 0, 0, 0, -2.5 -2.5" transform="rotate(90,89.5,114.5)"/><path d="M 102 112v 5h 2.5a 2.5 2.5, 0, 0, 0, 0 -5" transform="rotate(180,104.5,114.5)"/><rect x="107" y="112" width="5" height="5" transform="rotate(0,109.5,114.5)"/><path d="M 112 112v 5h 2.5a 2.5 2.5, 0, 0, 0, 0 -5" transform="rotate(0,114.5,114.5)"/><path d="M 127 112v 5h 2.5a 2.5 2.5, 0, 0, 0, 0 -5" transform="rotate(-90,129.5,114.5)"/><path d="M 137 112v 5h 2.5a 2.5 2.5, 0, 0, 0, 0 -5" transform="rotate(90,139.5,114.5)"/><path d="M 147 112v 5h 2.5a 2.5 2.5, 0, 0, 0, 0 -5" transform="rotate(90,149.5,114.5)"/><path d="M 157 112v 5h 2.5a 2.5 2.5, 0, 0, 0, 0 -5" transform="rotate(90,159.5,114.5)"/><path d="M 172 112v 5h 5v -2.5a 2.5 2.5, 0, 0, 0, -2.5 -2.5" transform="rotate(180,174.5,114.5)"/><path d="M 177 112v 5h 2.5a 2.5 2.5, 0, 0, 0, 0 -5" transform="rotate(0,179.5,114.5)"/><rect x="17" y="117" width="5" height="5" transform="rotate(0,19.5,119.5)"/><path d="M 22 117v 5h 5v -2.5a 2.5 2.5, 0, 0, 0, -2.5 -2.5" transform="rotate(90,24.5,119.5)"/><path d="M 47 117v 5h 2.5a 2.5 2.5, 0, 0, 0, 0 -5" transform="rotate(180,49.5,119.5)"/><rect x="52" y="117" width="5" height="5" transform="rotate(0,54.5,119.5)"/><rect x="57" y="117" width="5" height="5" transform="rotate(0,59.5,119.5)"/><path d="M 62 117v 5h 5v -2.5a 2.5 2.5, 0, 0, 0, -2.5 -2.5" transform="rotate(0,64.5,119.5)"/><path d="M 72 117v 5h 2.5a 2.5 2.5, 0, 0, 0, 0 -5" transform="rotate(-90,74.5,119.5)"/><path d="M 92 117v 5h 5v -2.5a 2.5 2.5, 0, 0, 0, -2.5 -2.5" transform="rotate(-90,94.5,119.5)"/><path d="M 97 117v 5h 5v -2.5a 2.5 2.5, 0, 0, 0, -2.5 -2.5" transform="rotate(0,99.5,119.5)"/><rect x="127" y="117" width="5" height="5" transform="rotate(0,129.5,119.5)"/><path d="M 132 117v 5h 5v -2.5a 2.5 2.5, 0, 0, 0, -2.5 -2.5" transform="rotate(0,134.5,119.5)"/><circle cx="154.5" cy="119.5" r="2.5" transform="rotate(0,154.5,119.5)"/><path d="M 162 117v 5h 2.5a 2.5 2.5, 0, 0, 0, 0 -5" transform="rotate(180,164.5,119.5)"/><path d="M 167 117v 5h 2.5a 2.5 2.5, 0, 0, 0, 0 -5" transform="rotate(0,169.5,119.5)"/><path d="M 17 122v 5h 2.5a 2.5 2.5, 0, 0, 0, 0 -5" transform="rotate(90,19.5,124.5)"/><path d="M 27 122v 5h 2.5a 2.5 2.5, 0, 0, 0, 0 -5" transform="rotate(180,29.5,124.5)"/><rect x="32" y="122" width="5" height="5" transform="rotate(0,34.5,124.5)"/><path d="M 37 122v 5h 2.5a 2.5 2.5, 0, 0, 0, 0 -5" transform="rotate(0,39.5,124.5)"/><path d="M 62 122v 5h 5v -2.5a 2.5 2.5, 0, 0, 0, -2.5 -2.5" transform="rotate(180,64.5,124.5)"/><rect x="67" y="122" width="5" height="5" transform="rotate(0,69.5,124.5)"/><rect x="72" y="122" width="5" height="5" transform="rotate(0,74.5,124.5)"/><rect x="92" y="122" width="5" height="5" transform="rotate(0,94.5,124.5)"/><path d="M 97 122v 5h 5v -2.5a 2.5 2.5, 0, 0, 0, -2.5 -2.5" transform="rotate(90,99.5,124.5)"/><path d="M 117 122v 5h 5v -2.5a 2.5 2.5, 0, 0, 0, -2.5 -2.5" transform="rotate(-90,119.5,124.5)"/><rect x="122" y="122" width="5" height="5" transform="rotate(0,124.5,124.5)"/><rect x="127" y="122" width="5" height="5" transform="rotate(0,129.5,124.5)"/><rect x="132" y="122" width="5" height="5" transform="rotate(0,134.5,124.5)"/><path d="M 147 122v 5h 2.5a 2.5 2.5, 0, 0, 0, 0 -5" transform="rotate(-90,149.5,124.5)"/><path d="M 177 122v 5h 2.5a 2.5 2.5, 0, 0, 0, 0 -5" transform="rotate(-90,179.5,124.5)"/><rect x="32" y="127" width="5" height="5" transform="rotate(0,34.5,129.5)"/><path d="M 42 127v 5h 2.5a 2.5 2.5, 0, 0, 0, 0 -5" transform="rotate(180,44.5,129.5)"/><rect x="47" y="127" width="5" height="5" transform="rotate(0,49.5,129.5)"/><path d="M 52 127v 5h 2.5a 2.5 2.5, 0, 0, 0, 0 -5" transform="rotate(0,54.5,129.5)"/><rect x="72" y="127" width="5" height="5" transform="rotate(0,74.5,129.5)"/><circle cx="84.5" cy="129.5" r="2.5" transform="rotate(0,84.5,129.5)"/><rect x="92" y="127" width="5" height="5" transform="rotate(0,94.5,129.5)"/><path d="M 102 127v 5h 2.5a 2.5 2.5, 0, 0, 0, 0 -5" transform="rotate(180,104.5,129.5)"/><rect x="107" y="127" width="5" height="5" transform="rotate(0,109.5,129.5)"/><rect x="112" y="127" width="5" height="5" transform="rotate(0,114.5,129.5)"/><rect x="117" y="127" width="5" height="5" transform="rotate(0,119.5,129.5)"/><path d="M 127 127v 5h 5v -2.5a 2.5 2.5, 0, 0, 0, -2.5 -2.5" transform="rotate(180,129.5,129.5)"/><rect x="132" y="127" width="5" height="5" transform="rotate(0,134.5,129.5)"/><rect x="147" y="127" width="5" height="5" transform="rotate(0,149.5,129.5)"/><circle cx="159.5" cy="129.5" r="2.5" transform="rotate(0,159.5,129.5)"/><path d="M 167 127v 5h 2.5a 2.5 2.5, 0, 0, 0, 0 -5" transform="rotate(180,169.5,129.5)"/><rect x="172" y="127" width="5" height="5" transform="rotate(0,174.5,129.5)"/><rect x="177" y="127" width="5" height="5" transform="rotate(0,179.5,129.5)"/><circle cx="24.5" cy="134.5" r="2.5" transform="rotate(0,24.5,134.5)"/><path d="M 32 132v 5h 5v -2.5a 2.5 2.5, 0, 0, 0, -2.5 -2.5" transform="rotate(180,34.5,134.5)"/><path d="M 37 132v 5h 2.5a 2.5 2.5, 0, 0, 0, 0 -5" transform="rotate(0,39.5,134.5)"/><rect x="72" y="132" width="5" height="5" transform="rotate(0,74.5,134.5)"/><path d="M 77 132v 5h 2.5a 2.5 2.5, 0, 0, 0, 0 -5" transform="rotate(0,79.5,134.5)"/><path d="M 92 132v 5h 2.5a 2.5 2.5, 0, 0, 0, 0 -5" transform="rotate(90,94.5,134.5)"/><path d="M 107 132v 5h 2.5a 2.5 2.5, 0, 0, 0, 0 -5" transform="rotate(90,109.5,134.5)"/><path d="M 117 132v 5h 2.5a 2.5 2.5, 0, 0, 0, 0 -5" transform="rotate(90,119.5,134.5)"/><rect x="132" y="132" width="5" height="5" transform="rotate(0,134.5,134.5)"/><path d="M 137 132v 5h 5v -2.5a 2.5 2.5, 0, 0, 0, -2.5 -2.5" transform="rotate(0,139.5,134.5)"/><rect x="147" y="132" width="5" height="5" transform="rotate(0,149.5,134.5)"/><path d="M 152 132v 5h 5v -2.5a 2.5 2.5, 0, 0, 0, -2.5 -2.5" transform="rotate(0,154.5,134.5)"/><circle cx="164.5" cy="134.5" r="2.5" transform="rotate(0,164.5,134.5)"/><rect x="177" y="132" width="5" height="5" transform="rotate(0,179.5,134.5)"/><circle cx="19.5" cy="139.5" r="2.5" transform="rotate(0,19.5,139.5)"/><circle cx="29.5" cy="139.5" r="2.5" transform="rotate(0,29.5,139.5)"/><path d="M 42 137v 5h 2.5a 2.5 2.5, 0, 0, 0, 0 -5" transform="rotate(180,44.5,139.5)"/><path d="M 47 137v 5h 2.5a 2.5 2.5, 0, 0, 0, 0 -5" transform="rotate(0,49.5,139.5)"/><path d="M 67 137v 5h 2.5a 2.5 2.5, 0, 0, 0, 0 -5" transform="rotate(180,69.5,139.5)"/><rect x="72" y="137" width="5" height="5" transform="rotate(0,74.5,139.5)"/><path d="M 87 137v 5h 2.5a 2.5 2.5, 0, 0, 0, 0 -5" transform="rotate(-90,89.5,139.5)"/><circle cx="104.5" cy="139.5" r="2.5" transform="rotate(0,104.5,139.5)"/><path d="M 112 137v 5h 2.5a 2.5 2.5, 0, 0, 0, 0 -5" transform="rotate(-90,114.5,139.5)"/><path d="M 127 137v 5h 2.5a 2.5 2.5, 0, 0, 0, 0 -5" transform="rotate(180,129.5,139.5)"/><rect x="132" y="137" width="5" height="5" transform="rotate(0,134.5,139.5)"/><rect x="137" y="137" width="5" height="5" transform="rotate(0,139.5,139.5)"/><rect x="142" y="137" width="5" height="5" transform="rotate(0,144.5,139.5)"/><rect x="147" y="137" width="5" height="5" transform="rotate(0,149.5,139.5)"/><rect x="152" y="137" width="5" height="5" transform="rotate(0,154.5,139.5)"/><path d="M 157 137v 5h 5v -2.5a 2.5 2.5, 0, 0, 0, -2.5 -2.5" transform="rotate(0,159.5,139.5)"/><path d="M 177 137v 5h 2.5a 2.5 2.5, 0, 0, 0, 0 -5" transform="rotate(90,179.5,139.5)"/><path d="M 57 142v 5h 5v -2.5a 2.5 2.5, 0, 0, 0, -2.5 -2.5" transform="rotate(-90,59.5,144.5)"/><path d="M 62 142v 5h 2.5a 2.5 2.5, 0, 0, 0, 0 -5" transform="rotate(0,64.5,144.5)"/><path d="M 72 142v 5h 5v -2.5a 2.5 2.5, 0, 0, 0, -2.5 -2.5" transform="rotate(180,74.5,144.5)"/><path d="M 77 142v 5h 2.5a 2.5 2.5, 0, 0, 0, 0 -5" transform="rotate(0,79.5,144.5)"/><rect x="87" y="142" width="5" height="5" transform="rotate(0,89.5,144.5)"/><rect x="92" y="142" width="5" height="5" transform="rotate(0,94.5,144.5)"/><path d="M 97 142v 5h 5v -2.5a 2.5 2.5, 0, 0, 0, -2.5 -2.5" transform="rotate(0,99.5,144.5)"/><rect x="112" y="142" width="5" height="5" transform="rotate(0,114.5,144.5)"/><rect x="117" y="142" width="5" height="5" transform="rotate(0,119.5,144.5)"/><path d="M 122 142v 5h 5v -2.5a 2.5 2.5, 0, 0, 0, -2.5 -2.5" transform="rotate(0,124.5,144.5)"/><rect x="132" y="142" width="5" height="5" transform="rotate(0,134.5,144.5)"/><rect x="137" y="142" width="5" height="5" transform="rotate(0,139.5,144.5)"/><rect x="157" y="142" width="5" height="5" transform="rotate(0,159.5,144.5)"/><path d="M 162 142v 5h 2.5a 2.5 2.5, 0, 0, 0, 0 -5" transform="rotate(0,164.5,144.5)"/><rect x="57" y="147" width="5" height="5" transform="rotate(0,59.5,149.5)"/><path d="M 82 147v 5h 5v -2.5a 2.5 2.5, 0, 0, 0, -2.5 -2.5" transform="rotate(-90,84.5,149.5)"/><rect x="87" y="147" width="5" height="5" transform="rotate(0,89.5,149.5)"/><rect x="97" y="147" width="5" height="5" transform="rotate(0,99.5,149.5)"/><rect x="102" y="147" width="5" height="5" transform="rotate(0,104.5,149.5)"/><rect x="107" y="147" width="5" height="5" transform="rotate(0,109.5,149.5)"/><path d="M 112 147v 5h 5v -2.5a 2.5 2.5, 0, 0, 0, -2.5 -2.5" transform="rotate(90,114.5,149.5)"/><path d="M 122 147v 5h 2.5a 2.5 2.5, 0, 0, 0, 0 -5" transform="rotate(90,124.5,149.5)"/><rect x="132" y="147" width="5" height="5" transform="rotate(0,134.5,149.5)"/><rect x="137" y="147" width="5" height="5" transform="rotate(0,139.5,149.5)"/><circle cx="149.5" cy="149.5" r="2.5" transform="rotate(0,149.5,149.5)"/><rect x="157" y="147" width="5" height="5" transform="rotate(0,159.5,149.5)"/><path d="M 57 152v 5h 2.5a 2.5 2.5, 0, 0, 0, 0 -5" transform="rotate(90,59.5,154.5)"/><circle cx="74.5" cy="154.5" r="2.5" transform="rotate(0,74.5,154.5)"/><path d="M 82 152v 5h 5v -2.5a 2.5 2.5, 0, 0, 0, -2.5 -2.5" transform="rotate(180,84.5,154.5)"/><rect x="87" y="152" width="5" height="5" transform="rotate(0,89.5,154.5)"/><rect x="97" y="152" width="5" height="5" transform="rotate(0,99.5,154.5)"/><rect x="102" y="152" width="5" height="5" transform="rotate(0,104.5,154.5)"/><rect x="107" y="152" width="5" height="5" transform="rotate(0,109.5,154.5)"/><rect x="132" y="152" width="5" height="5" transform="rotate(0,134.5,154.5)"/><rect x="137" y="152" width="5" height="5" transform="rotate(0,139.5,154.5)"/><rect x="157" y="152" width="5" height="5" transform="rotate(0,159.5,154.5)"/><rect x="162" y="152" width="5" height="5" transform="rotate(0,164.5,154.5)"/><path d="M 167 152v 5h 5v -2.5a 2.5 2.5, 0, 0, 0, -2.5 -2.5" transform="rotate(0,169.5,154.5)"/><path d="M 77 157v 5h 2.5a 2.5 2.5, 0, 0, 0, 0 -5" transform="rotate(-90,79.5,159.5)"/><rect x="87" y="157" width="5" height="5" transform="rotate(0,89.5,159.5)"/><rect x="92" y="157" width="5" height="5" transform="rotate(0,94.5,159.5)"/><rect x="97" y="157" width="5" height="5" transform="rotate(0,99.5,159.5)"/><rect x="102" y="157" width="5" height="5" transform="rotate(0,104.5,159.5)"/><rect x="107" y="157" width="5" height="5" transform="rotate(0,109.5,159.5)"/><path d="M 112 157v 5h 5v -2.5a 2.5 2.5, 0, 0, 0, -2.5 -2.5" transform="rotate(0,114.5,159.5)"/><path d="M 127 157v 5h 5v -2.5a 2.5 2.5, 0, 0, 0, -2.5 -2.5" transform="rotate(-90,129.5,159.5)"/><rect x="132" y="157" width="5" height="5" transform="rotate(0,134.5,159.5)"/><rect x="137" y="157" width="5" height="5" transform="rotate(0,139.5,159.5)"/><rect x="142" y="157" width="5" height="5" transform="rotate(0,144.5,159.5)"/><rect x="147" y="157" width="5" height="5" transform="rotate(0,149.5,159.5)"/><rect x="152" y="157" width="5" height="5" transform="rotate(0,154.5,159.5)"/><path d="M 157 157v 5h 5v -2.5a 2.5 2.5, 0, 0, 0, -2.5 -2.5" transform="rotate(90,159.5,159.5)"/><rect x="167" y="157" width="5" height="5" transform="rotate(0,169.5,159.5)"/><path d="M 57 162v 5h 2.5a 2.5 2.5, 0, 0, 0, 0 -5" transform="rotate(-90,59.5,164.5)"/><path d="M 67 162v 5h 5v -2.5a 2.5 2.5, 0, 0, 0, -2.5 -2.5" transform="rotate(-90,69.5,164.5)"/><rect x="72" y="162" width="5" height="5" transform="rotate(0,74.5,164.5)"/><rect x="77" y="162" width="5" height="5" transform="rotate(0,79.5,164.5)"/><path d="M 87 162v 5h 2.5a 2.5 2.5, 0, 0, 0, 0 -5" transform="rotate(90,89.5,164.5)"/><rect x="97" y="162" width="5" height="5" transform="rotate(0,99.5,164.5)"/><path d="M 112 162v 5h 2.5a 2.5 2.5, 0, 0, 0, 0 -5" transform="rotate(90,114.5,164.5)"/><path d="M 127 162v 5h 5v -2.5a 2.5 2.5, 0, 0, 0, -2.5 -2.5" transform="rotate(180,129.5,164.5)"/><rect x="132" y="162" width="5" height="5" transform="rotate(0,134.5,164.5)"/><path d="M 137 162v 5h 5v -2.5a 2.5 2.5, 0, 0, 0, -2.5 -2.5" transform="rotate(90,139.5,164.5)"/><rect x="152" y="162" width="5" height="5" transform="rotate(0,154.5,164.5)"/><rect x="167" y="162" width="5" height="5" transform="rotate(0,169.5,164.5)"/><rect x="172" y="162" width="5" height="5" transform="rotate(0,174.5,164.5)"/><path d="M 177 162v 5h 2.5a 2.5 2.5, 0, 0, 0, 0 -5" transform="rotate(0,179.5,164.5)"/><path d="M 57 167v 5h 2.5a 2.5 2.5, 0, 0, 0, 0 -5" transform="rotate(90,59.5,169.5)"/><path d="M 67 167v 5h 2.5a 2.5 2.5, 0, 0, 0, 0 -5" transform="rotate(90,69.5,169.5)"/><path d="M 77 167v 5h 2.5a 2.5 2.5, 0, 0, 0, 0 -5" transform="rotate(90,79.5,169.5)"/><path d="M 92 167v 5h 2.5a 2.5 2.5, 0, 0, 0, 0 -5" transform="rotate(180,94.5,169.5)"/><rect x="97" y="167" width="5" height="5" transform="rotate(0,99.5,169.5)"/><rect x="102" y="167" width="5" height="5" transform="rotate(0,104.5,169.5)"/><path d="M 107 167v 5h 2.5a 2.5 2.5, 0, 0, 0, 0 -5" transform="rotate(0,109.5,169.5)"/><path d="M 117 167v 5h 2.5a 2.5 2.5, 0, 0, 0, 0 -5" transform="rotate(-90,119.5,169.5)"/><rect x="132" y="167" width="5" height="5" transform="rotate(0,134.5,169.5)"/><path d="M 147 167v 5h 5v -2.5a 2.5 2.5, 0, 0, 0, -2.5 -2.5" transform="rotate(-90,149.5,169.5)"/><rect x="152" y="167" width="5" height="5" transform="rotate(0,154.5,169.5)"/><path d="M 162 167v 5h 5v -2.5a 2.5 2.5, 0, 0, 0, -2.5 -2.5" transform="rotate(-90,164.5,169.5)"/><path d="M 167 167v 5h 5v -2.5a 2.5 2.5, 0, 0, 0, -2.5 -2.5" transform="rotate(90,169.5,169.5)"/><circle cx="64.5" cy="174.5" r="2.5" transform="rotate(0,64.5,174.5)"/><path d="M 72 172v 5h 2.5a 2.5 2.5, 0, 0, 0, 0 -5" transform="rotate(-90,74.5,174.5)"/><rect x="102" y="172" width="5" height="5" transform="rotate(0,104.5,174.5)"/><path d="M 117 172v 5h 2.5a 2.5 2.5, 0, 0, 0, 0 -5" transform="rotate(90,119.5,174.5)"/><path d="M 127 172v 5h 2.5a 2.5 2.5, 0, 0, 0, 0 -5" transform="rotate(180,129.5,174.5)"/><rect x="132" y="172" width="5" height="5" transform="rotate(0,134.5,174.5)"/><rect x="137" y="172" width="5" height="5" transform="rotate(0,139.5,174.5)"/><rect x="142" y="172" width="5" height="5" transform="rotate(0,144.5,174.5)"/><rect x="147" y="172" width="5" height="5" transform="rotate(0,149.5,174.5)"/><rect x="152" y="172" width="5" height="5" transform="rotate(0,154.5,174.5)"/><rect x="157" y="172" width="5" height="5" transform="rotate(0,159.5,174.5)"/><path d="M 162 172v 5h 5v -2.5a 2.5 2.5, 0, 0, 0, -2.5 -2.5" transform="rotate(90,164.5,174.5)"/><circle cx="179.5" cy="174.5" r="2.5" transform="rotate(0,179.5,174.5)"/><circle cx="59.5" cy="179.5" r="2.5" transform="rotate(0,59.5,179.5)"/><path d="M 72 177v 5h 2.5a 2.5 2.5, 0, 0, 0, 0 -5" transform="rotate(90,74.5,179.5)"/><path d="M 82 177v 5h 2.5a 2.5 2.5, 0, 0, 0, 0 -5" transform="rotate(180,84.5,179.5)"/><path d="M 87 177v 5h 2.5a 2.5 2.5, 0, 0, 0, 0 -5" transform="rotate(0,89.5,179.5)"/><path d="M 97 177v 5h 2.5a 2.5 2.5, 0, 0, 0, 0 -5" transform="rotate(180,99.5,179.5)"/><path d="M 102 177v 5h 5v -2.5a 2.5 2.5, 0, 0, 0, -2.5 -2.5" transform="rotate(90,104.5,179.5)"/><circle cx="114.5" cy="179.5" r="2.5" transform="rotate(0,114.5,179.5)"/><circle cx="124.5" cy="179.5" r="2.5" transform="rotate(0,124.5,179.5)"/><path d="M 132 177v 5h 2.5a 2.5 2.5, 0, 0, 0, 0 -5" transform="rotate(90,134.5,179.5)"/><path d="M 157 177v 5h 2.5a 2.5 2.5, 0, 0, 0, 0 -5" transform="rotate(90,159.5,179.5)"/><circle cx="169.5" cy="179.5" r="2.5" transform="rotate(0,169.5,179.5)"/></clipPath><clipPath id="clip-path-corners-square-color-0-0-0"><path clip-rule="evenodd" d="M 17 29.5v 10a 12.5 12.5, 0, 0, 0, 12.5 12.5h 10a 12.5 12.5, 0, 0, 0, 12.5 -12.5v -10a 12.5 12.5, 0, 0, 0, -12.5 -12.5h -10a 12.5 12.5, 0, 0, 0, -12.5 12.5M 29.5 22h 10a 7.5 7.5, 0, 0, 1, 7.5 7.5v 10a 7.5 7.5, 0, 0, 1, -7.5 7.5h -10a 7.5 7.5, 0, 0, 1, -7.5 -7.5v -10a 7.5 7.5, 0, 0, 1, 7.5 -7.5" transform="rotate(0,34.5,34.5)"/></clipPath><clipPath id="clip-path-corners-dot-color-0-0-0"><circle cx="34.5" cy="34.5" r="7.5" transform="rotate(0,34.5,34.5)"/></clipPath><clipPath id="clip-path-corners-square-color-1-0-0"><path clip-rule="evenodd" d="M 147 29.5v 10a 12.5 12.5, 0, 0, 0, 12.5 12.5h 10a 12.5 12.5, 0, 0, 0, 12.5 -12.5v -10a 12.5 12.5, 0, 0, 0, -12.5 -12.5h -10a 12.5 12.5, 0, 0, 0, -12.5 12.5M 159.5 22h 10a 7.5 7.5, 0, 0, 1, 7.5 7.5v 10a 7.5 7.5, 0, 0, 1, -7.5 7.5h -10a 7.5 7.5, 0, 0, 1, -7.5 -7.5v -10a 7.5 7.5, 0, 0, 1, 7.5 -7.5" transform="rotate(90,164.5,34.5)"/></clipPath><clipPath id="clip-path-corners-dot-color-1-0-0"><circle cx="164.5" cy="34.5" r="7.5" transform="rotate(90,164.5,34.5)"/></clipPath><clipPath id="clip-path-corners-square-color-0-1-0"><path clip-rule="evenodd" d="M 17 159.5v 10a 12.5 12.5, 0, 0, 0, 12.5 12.5h 10a 12.5 12.5, 0, 0, 0, 12.5 -12.5v -10a 12.5 12.5, 0, 0, 0, -12.5 -12.5h -10a 12.5 12.5, 0, 0, 0, -12.5 12.5M 29.5 152h 10a 7.5 7.5, 0, 0, 1, 7.5 7.5v 10a 7.5 7.5, 0, 0, 1, -7.5 7.5h -10a 7.5 7.5, 0, 0, 1, -7.5 -7.5v -10a 7.5 7.5, 0, 0, 1, 7.5 -7.5" transform="rotate(-90,34.5,164.5)"/></clipPath><clipPath id="clip-path-corners-dot-color-0-1-0"><circle cx="34.5" cy="164.5" r="7.5" transform="rotate(-90,34.5,164.5)"/></clipPath></defs><rect x="0" y="0" height="200" width="200" clip-path="url('#clip-path-background-color-0')" fill="transparent"/><rect x="0" y="0" height="200" width="200" clip-path="url('#clip-path-dot-color-0')" fill="#1a2e3b"/><rect x="17" y="17" height="35" width="35" clip-path="url('#clip-path-corners-square-color-0-0-0')" fill="#E07830"/><rect x="27" y="27" height="15" width="15" clip-path="url('#clip-path-corners-dot-color-0-0-0')" fill="#1a2e3b"/><rect x="147" y="17" height="35" width="35" clip-path="url('#clip-path-corners-square-color-1-0-0')" fill="#E07830"/><rect x="157" y="27" height="15" width="15" clip-path="url('#clip-path-corners-dot-color-1-0-0')" fill="#1a2e3b"/><rect x="17" y="147" height="35" width="35" clip-path="url('#clip-path-corners-square-color-0-1-0')" fill="#E07830"/><rect x="27" y="157" height="15" width="15" clip-path="url('#clip-path-corners-dot-color-0-1-0')" fill="#1a2e3b"/></svg>