<?xml version="1.0" standalone="no"?>
<svg xmlns="http://www.w3.org/2000/svg" width="200" height="200" xmlns:xlink="http://www.w3.org/1999/xlink" viewBox="0 0 200 200"><defs><clipPath id="clip-path-background-color-0"><rect x="0" y="0" width="200" height="200"/></clipPath><clipPath id="clip-path-dot-color-0"><path d="M 68 12v 7h 7v -3.5a 3.5 3.5, 0, 0, 0, -3.5 -3.5" transform="rotate(-90,71.5,15.5)"/><rect x="75" y="12" width="7" height="7" transform="rotate(0,78.5,15.5)"/><path d="M 82 12v 7h 7v -3.5a 3.5 3.5, 0, 0, 0, -3.5 -3.5" transform="rotate(0,85.5,15.5)"/><path d="M 110 12v 7h 3.5a 3.5 3.5, 0, 0, 0, 0 -7" transform="rotate(-90,113.5,15.5)"/><rect x="68" y="19" width="7" height="7" transform="rotate(0,71.5,22.5)"/><rect x="82" y="19" width="7" height="7" transform="rotate(0,85.5,22.5)"/><rect x="89" y="19" width="7" height="7" transform="rotate(0,92.5,22.5)"/><path d="M 96 19v 7h 7v -3.5a 3.5 3.5, 0, 0, 0, -3.5 -3.5" transform="rotate(0,99.5,22.5)"/><rect x="110" y="19" width="7" height="7" transform="rotate(0,113.5,22.5)"/><path d="M 124 19v 7h 3.5a 3.5 3.5, 0, 0, 0, 0 -7" transform="rotate(-90,127.5,22.5)"/><path d="M 68 26v 7h 7v -3.5a 3.5 3.5, 0, 0, 0, -3.5 -3.5" transform="rotate(180,71.5,29.5)"/><rect x="75" y="26" width="7" height="7" transform="rotate(0,78.5,29.5)"/><rect x="82" y="26" width="7" height="7" transform="rotate(0,85.5,29.5)"/><rect x="89" y="26" width="7" height="7" transform="rotate(0,92.5,29.5)"/><rect x="96" y="26" width="7" height="7" transform="rotate(0,99.5,29.5)"/><rect x="103" y="26" width="7" height="7" transform="rotate(0,106.5,29.5)"/><rect x="110" y="26" width="7" height="7" transform="rotate(0,113.5,29.5)"/><rect x="117" y="26" width="7" height="7" transform="rotate(0,120.5,29.5)"/><rect x="124" y="26" width="7" height="7" transform="rotate(0,127.5,29.5)"/><rect x="75" y="33" width="7" height="7" transform="rotate(0,78.5,36.5)"/><rect x="89" y="33" width="7" height="7" transform="rotate(0,92.5,36.5)"/><rect x="103" y="33" width="7" height="7" transform="rotate(0,106.5,36.5)"/><rect x="124" y="33" width="7" height="7" transform="rotate(0,127.5,36.5)"/><path d="M 68 40v 7h 3.5a 3.5 3.5, 0, 0, 0, 0 -7" transform="rotate(180,71.5,43.5)"/><path d="M 75 40v 7h 7v -3.5a 3.5 3.5, 0, 0, 0, -3.5 -3.5" transform="rotate(90,78.5,43.5)"/><path d="M 89 40v 7h 3.5a 3.5 3.5, 0, 0, 0, 0 -7" transform="rotate(90,92.5,43.5)"/><path d="M 103 40v 7h 7v -3.5a 3.5 3.5, 0, 0, 0, -3.5 -3.5" transform="rotate(180,106.5,43.5)"/><path d="M 110 40v 7h 3.5a 3.5 3.5, 0, 0, 0, 0 -7" transform="rotate(0,113.5,43.5)"/><rect x="124" y="40" width="7" height="7" transform="rotate(0,127.5,43.5)"/><path d="M 82 47v 7h 3.5a 3.5 3.5, 0, 0, 0, 0 -7" transform="rotate(-90,85.5,50.5)"/><path d="M 96 47v 7h 3.5a 3.5 3.5, 0, 0, 0, 0 -7" transform="rotate(-90,99.5,50.5)"/><rect x="124" y="47" width="7" height="7" transform="rotate(0,127.5,50.5)"/><circle cx="71.5" cy="57.5" r="3.5" transform="rotate(0,71.5,57.5)"/><path d="M 82 54v 7h 3.5a 3.5 3.5, 0, 0, 0, 0 -7" transform="rotate(90,85.5,57.5)"/><rect x="96" y="54" width="7" height="7" transform="rotate(0,99.5,57.5)"/><circle cx="113.5" cy="57.5" r="3.5" transform="rotate(0,113.5,57.5)"/><path d="M 124 54v 7h 3.5a 3.5 3.5, 0, 0, 0, 0 -7" transform="rotate(90,127.5,57.5)"/><circle cx="78.5" cy="64.5" r="3.5" transform="rotate(0,78.5,64.5)"/><rect x="96" y="61" width="7" height="7" transform="rotate(0,99.5,64.5)"/><path d="M 103 61v 7h 3.5a 3.5 3.5, 0, 0, 0, 0 -7" transform="rotate(0,106.5,64.5)"/><path d="M 117 61v 7h 3.5a 3.5 3.5, 0, 0, 0, 0 -7" transform="rotate(-90,120.5,64.5)"/><path d="M 12 68v 7h 3.5a 3.5 3.5, 0, 0, 0, 0 -7" transform="rotate(-90,15.5,71.5)"/><path d="M 33 68v 7h 3.5a 3.5 3.5, 0, 0, 0, 0 -7" transform="rotate(180,36.5,71.5)"/><rect x="40" y="68" width="7" height="7" transform="rotate(0,43.5,71.5)"/><rect x="47" y="68" width="7" height="7" transform="rotate(0,50.5,71.5)"/><rect x="54" y="68" width="7" height="7" transform="rotate(0,57.5,71.5)"/><rect x="61" y="68" width="7" height="7" transform="rotate(0,64.5,71.5)"/><path d="M 68 68v 7h 7v -3.5a 3.5 3.5, 0, 0, 0, -3.5 -3.5" transform="rotate(0,71.5,71.5)"/><path d="M 89 68v 7h 7v -3.5a 3.5 3.5, 0, 0, 0, -3.5 -3.5" transform="rotate(-90,92.5,71.5)"/><path d="M 96 68v 7h 7v -3.5a 3.5 3.5, 0, 0, 0, -3.5 -3.5" transform="rotate(90,99.5,71.5)"/><rect x="117" y="68" width="7" height="7" transform="rotate(0,120.5,71.5)"/><path d="M 131 68v 7h 3.5a 3.5 3.5, 0, 0, 0, 0 -7" transform="rotate(-90,134.5,71.5)"/><path d="M 152 68v 7h 3.5a 3.5 3.5, 0, 0, 0, 0 -7" transform="rotate(-90,155.5,71.5)"/><path d="M 166 68v 7h 7v -3.5a 3.5 3.5, 0, 0, 0, -3.5 -3.5" transform="rotate(-90,169.5,71.5)"/><rect x="173" y="68" width="7" height="7" transform="rotate(0,176.5,71.5)"/><path d="M 180 68v 7h 3.5a 3.5 3.5, 0, 0, 0, 0 -7" transform="rotate(0,183.5,71.5)"/><rect x="12" y="75" width="7" height="7" transform="rotate(0,15.5,78.5)"/><path d="M 40 75v 7h 7v -3.5a 3.5 3.5, 0, 0, 0, -3.5 -3.5" transform="rotate(180,43.5,78.5)"/><rect x="47" y="75" width="7" height="7" transform="rotate(0,50.5,78.5)"/><path d="M 68 75v 7h 7v -3.5a 3.5 3.5, 0, 0, 0, -3.5 -3.5" transform="rotate(180,71.5,78.5)"/><rect x="75" y="75" width="7" height="7" transform="rotate(0,78.5,78.5)"/><rect x="82" y="75" width="7" height="7" transform="rotate(0,85.5,78.5)"/><path d="M 89 75v 7h 7v -3.5a 3.5 3.5, 0, 0, 0, -3.5 -3.5" transform="rotate(90,92.5,78.5)"/><path d="M 103 75v 7h 7v -3.5a 3.5 3.5, 0, 0, 0, -3.5 -3.5" transform="rotate(-90,106.5,78.5)"/><rect x="110" y="75" width="7" height="7" transform="rotate(0,113.5,78.5)"/><rect x="117" y="75" width="7" height="7" transform="rotate(0,120.5,78.5)"/><rect x="131" y="75" width="7" height="7" transform="rotate(0,134.5,78.5)"/><path d="M 145 75v 7h 7v -3.5a 3.5 3.5, 0, 0, 0, -3.5 -3.5" transform="rotate(-90,148.5,78.5)"/><rect x="152" y="75" width="7" height="7" transform="rotate(0,155.5,78.5)"/><rect x="159" y="75" width="7" height="7" transform="rotate(0,162.5,78.5)"/><rect x="166" y="75" width="7" height="7" transform="rotate(0,169.5,78.5)"/><path d="M 173 75v 7h 7v -3.5a 3.5 3.5, 0, 0, 0, -3.5 -3.5" transform="rotate(90,176.5,78.5)"/><rect x="12" y="82" width="7" height="7" transform="rotate(0,15.5,85.5)"/><path d="M 26 82v 7h 7v -3.5a 3.5 3.5, 0, 0, 0, -3.5 -3.5" transform="rotate(-90,29.5,85.5)"/><path d="M 33 82v 7h 7v -3.5a 3.5 3.5, 0, 0, 0, -3.5 -3.5" transform="rotate(0,36.5,85.5)"/><path d="M 47 82v 7h 7v -3.5a 3.5 3.5, 0, 0, 0, -3.5 -3.5" transform="rotate(180,50.5,85.5)"/><rect x="54" y="82" width="7" height="7" transform="rotate(0,57.5,85.5)"/><path d="M 61 82v 7h 3.5a 3.5 3.5, 0, 0, 0, 0 -7" transform="rotate(0,64.5,85.5)"/><path d="M 96 82v 7h 7v -3.5a 3.5 3.5, 0, 0, 0, -3.5 -3.5" transform="rotate(-90,99.5,85.5)"/><path d="M 103 82v 7h 7v -3.5a 3.5 3.5, 0, 0, 0, -3.5 -3.5" transform="rotate(90,106.5,85.5)"/><path d="M 117 82v 7h 7v -3.5a 3.5 3.5, 0, 0, 0, -3.5 -3.5" transform="rotate(180,120.5,85.5)"/><rect x="124" y="82" width="7" height="7" transform="rotate(0,127.5,85.5)"/><rect x="131" y="82" width="7" height="7" transform="rotate(0,134.5,85.5)"/><rect x="138" y="82" width="7" height="7" transform="rotate(0,141.5,85.5)"/><rect x="145" y="82" width="7" height="7" transform="rotate(0,148.5,85.5)"/><rect x="152" y="82" width="7" height="7" transform="rotate(0,155.5,85.5)"/><rect x="159" y="82" width="7" height="7" transform="rotate(0,162.5,85.5)"/><path d="M 180 82v 7h 3.5a 3.5 3.5, 0, 0, 0, 0 -7" transform="rotate(-90,183.5,85.5)"/><rect x="12" y="89" width="7" height="7" transform="rotate(0,15.5,92.5)"/><path d="M 26 89v 7h 7v -3.5a 3.5 3.5, 0, 0, 0, -3.5 -3.5" transform="rotate(180,29.5,92.5)"/><rect x="33" y="89" width="7" height="7" transform="rotate(0,36.5,92.5)"/><path d="M 40 89v 7h 7v -3.5a 3.5 3.5, 0, 0, 0, -3.5 -3.5" transform="rotate(0,43.5,92.5)"/><path d="M 68 89v 7h 3.5a 3.5 3.5, 0, 0, 0, 0 -7" transform="rotate(180,71.5,92.5)"/><rect x="75" y="89" width="7" height="7" transform="rotate(0,78.5,92.5)"/><rect x="82" y="89" width="7" height="7" transform="rotate(0,85.5,92.5)"/><rect x="89" y="89" width="7" height="7" transform="rotate(0,92.5,92.5)"/><path d="M 96 89v 7h 7v -3.5a 3.5 3.5, 0, 0, 0, -3.5 -3.5" transform="rotate(90,99.5,92.5)"/><path d="M 131 89v 7h 7v -3.5a 3.5 3.5, 0, 0, 0, -3.5 -3.5" transform="rotate(180,134.5,92.5)"/><rect x="138" y="89" width="7" height="7" transform="rotate(0,141.5,92.5)"/><path d="M 159 89v 7h 7v -3.5a 3.5 3.5, 0, 0, 0, -3.5 -3.5" transform="rotate(180,162.5,92.5)"/><rect x="166" y="89" width="7" height="7" transform="rotate(0,169.5,92.5)"/><rect x="173" y="89" width="7" height="7" transform="rotate(0,176.5,92.5)"/><rect x="180" y="89" width="7" height="7" transform="rotate(0,183.5,92.5)"/><rect x="12" y="96" width="7" height="7" transform="rotate(0,15.5,99.5)"/><path d="M 19 96v 7h 3.5a 3.5 3.5, 0, 0, 0, 0 -7" transform="rotate(0,22.5,99.5)"/><rect x="33" y="96" width="7" height="7" transform="rotate(0,36.5,99.5)"/><rect x="40" y="96" width="7" height="7" transform="rotate(0,43.5,99.5)"/><rect x="47" y="96" width="7" height="7" transform="rotate(0,50.5,99.5)"/><path d="M 54 96v 7h 3.5a 3.5 3.5, 0, 0, 0, 0 -7" transform="rotate(0,57.5,99.5)"/><rect x="82" y="96" width="7" height="7" transform="rotate(0,85.5,99.5)"/><path d="M 89 96v 7h 7v -3.5a 3.5 3.5, 0, 0, 0, -3.5 -3.5" transform="rotate(90,92.5,99.5)"/><path d="M 117 96v 7h 7v -3.5a 3.5 3.5, 0, 0, 0, -3.5 -3.5" transform="rotate(-90,120.5,99.5)"/><path d="M 124 96v 7h 7v -3.5a 3.5 3.5, 0, 0, 0, -3.5 -3.5" transform="rotate(0,127.5,99.5)"/><path d="M 138 96v 7h 7v -3.5a 3.5 3.5, 0, 0, 0, -3.5 -3.5" transform="rotate(180,141.5,99.5)"/><path d="M 145 96v 7h 3.5a 3.5 3.5, 0, 0, 0, 0 -7" transform="rotate(0,148.5,99.5)"/><path d="M 180 96v 7h 3.5a 3.5 3.5, 0, 0, 0, 0 -7" transform="rotate(90,183.5,99.5)"/><rect x="12" y="103" width="7" height="7" transform="rotate(0,15.5,106.5)"/><path d="M 26 103v 7h 7v -3.5a 3.5 3.5, 0, 0, 0, -3.5 -3.5" transform="rotate(-90,29.5,106.5)"/><rect x="33" y="103" width="7" height="7" transform="rotate(0,36.5,106.5)"/><path d="M 61 103v 7h 3.5a 3.5 3.5, 0, 0, 0, 0 -7" transform="rotate(-90,64.5,106.5)"/><rect x="82" y="103" width="7" height="7" transform="rotate(0,85.5,106.5)"/><path d="M 96 103v 7h 3.5a 3.5 3.5, 0, 0, 0, 0 -7" transform="rotate(180,99.5,106.5)"/><path d="M 103 103v 7h 3.5a 3.5 3.5, 0, 0, 0, 0 -7" transform="rotate(0,106.5,106.5)"/><rect x="117" y="103" width="7" height="7" transform="rotate(0,120.5,106.5)"/><rect x="124" y="103" width="7" height="7" transform="rotate(0,127.5,106.5)"/><path d="M 131 103v 7h 3.5a 3.5 3.5, 0, 0, 0, 0 -7" transform="rotate(0,134.5,106.5)"/><path d="M 152 103v 7h 3.5a 3.5 3.5, 0, 0, 0, 0 -7" transform="rotate(-90,155.5,106.5)"/><path d="M 173 103v 7h 3.5a 3.5 3.5, 0, 0, 0, 0 -7" transform="rotate(-90,176.5,106.5)"/><rect x="12" y="110" width="7" height="7" transform="rotate(0,15.5,113.5)"/><rect x="19" y="110" width="7" height="7" transform="rotate(0,22.5,113.5)"/><rect x="26" y="110" width="7" height="7" transform="rotate(0,29.5,113.5)"/><path d="M 33 110v 7h 7v -3.5a 3.5 3.5, 0, 0, 0, -3.5 -3.5" transform="rotate(90,36.5,113.5)"/><path d="M 54 110v 7h 3.5a 3.5 3.5, 0, 0, 0, 0 -7" transform="rotate(180,57.5,113.5)"/><path d="M 61 110v 7h 7v -3.5a 3.5 3.5, 0, 0, 0, -3.5 -3.5" transform="rotate(90,64.5,113.5)"/><path d="M 75 110v 7h 3.5a 3.5 3.5, 0, 0, 0, 0 -7" transform="rotate(180,78.5,113.5)"/><rect x="82" y="110" width="7" height="7" transform="rotate(0,85.5,113.5)"/><path d="M 117 110v 7h 7v -3.5a 3.5 3.5, 0, 0, 0, -3.5 -3.5" transform="rotate(180,120.5,113.5)"/><rect x="124" y="110" width="7" height="7" transform="rotate(0,127.5,113.5)"/><path d="M 138 110v 7h 3.5a 3.5 3.5, 0, 0, 0, 0 -7" transform="rotate(-90,141.5,113.5)"/><path d="M 152 110v 7h 7v -3.5a 3.5 3.5, 0, 0, 0, -3.5 -3.5" transform="rotate(180,155.5,113.5)"/><rect x="159" y="110" width="7" height="7" transform="rotate(0,162.5,113.5)"/><rect x="166" y="110" width="7" height="7" transform="rotate(0,169.5,113.5)"/><rect x="173" y="110" width="7" height="7" transform="rotate(0,176.5,113.5)"/><path d="M 180 110v 7h 7v -3.5a 3.5 3.5, 0, 0, 0, -3.5 -3.5" transform="rotate(0,183.5,113.5)"/><rect x="12" y="117" width="7" height="7" transform="rotate(0,15.5,120.5)"/><path d="M 26 117v 7h 3.5a 3.5 3.5, 0, 0, 0, 0 -7" transform="rotate(90,29.5,120.5)"/><path d="M 40 117v 7h 3.5a 3.5 3.5, 0, 0, 0, 0 -7" transform="rotate(180,43.5,120.5)"/><path d="M 47 117v 7h 7v -3.5a 3.5 3.5, 0, 0, 0, -3.5 -3.5" transform="rotate(0,50.5,120.5)"/><path d="M 68 117v 7h 3.5a 3.5 3.5, 0, 0, 0, 0 -7" transform="rotate(-90,71.5,120.5)"/><path d="M 82 117v 7h 3.5a 3.5 3.5, 0, 0, 0, 0 -7" transform="rotate(90,85.5,120.5)"/><path d="M 96 117v 7h 3.5a 3.5 3.5, 0, 0, 0, 0 -7" transform="rotate(-90,99.5,120.5)"/><circle cx="113.5" cy="120.5" r="3.5" transform="rotate(0,113.5,120.5)"/><rect x="124" y="117" width="7" height="7" transform="rotate(0,127.5,120.5)"/><rect x="138" y="117" width="7" height="7" transform="rotate(0,141.5,120.5)"/><path d="M 145 117v 7h 7v -3.5a 3.5 3.5, 0, 0, 0, -3.5 -3.5" transform="rotate(0,148.5,120.5)"/><path d="M 159 117v 7h 7v -3.5a 3.5 3.5, 0, 0, 0, -3.5 -3.5" transform="rotate(180,162.5,120.5)"/><rect x="166" y="117" width="7" height="7" transform="rotate(0,169.5,120.5)"/><path d="M 180 117v 7h 3.5a 3.5 3.5, 0, 0, 0, 0 -7" transform="rotate(90,183.5,120.5)"/><path d="M 12 124v 7h 3.5a 3.5 3.5, 0, 0, 0, 0 -7" transform="rotate(90,15.5,127.5)"/><path d="M 47 124v 7h 7v -3.5a 3.5 3.5, 0, 0, 0, -3.5 -3.5" transform="rotate(180,50.5,127.5)"/><rect x="54" y="124" width="7" height="7" transform="rotate(0,57.5,127.5)"/><rect x="61" y="124" width="7" height="7" transform="rotate(0,64.5,127.5)"/><rect x="68" y="124" width="7" height="7" transform="rotate(0,71.5,127.5)"/><path d="M 75 124v 7h 3.5a 3.5 3.5, 0, 0, 0, 0 -7" transform="rotate(0,78.5,127.5)"/><path d="M 89 124v 7h 7v -3.5a 3.5 3.5, 0, 0, 0, -3.5 -3.5" transform="rotate(-90,92.5,127.5)"/><rect x="96" y="124" width="7" height="7" transform="rotate(0,99.5,127.5)"/><path d="M 103 124v 7h 3.5a 3.5 3.5, 0, 0, 0, 0 -7" transform="rotate(0,106.5,127.5)"/><rect x="124" y="124" width="7" height="7" transform="rotate(0,127.5,127.5)"/><rect x="131" y="124" width="7" height="7" transform="rotate(0,134.5,127.5)"/><rect x="138" y="124" width="7" height="7" transform="rotate(0,141.5,127.5)"/><rect x="145" y="124" width="7" height="7" transform="rotate(0,148.5,127.5)"/><path d="M 152 124v 7h 7v -3.5a 3.5 3.5, 0, 0, 0, -3.5 -3.5" transform="rotate(0,155.5,127.5)"/><rect x="166" y="124" width="7" height="7" transform="rotate(0,169.5,127.5)"/><path d="M 173 124v 7h 7v -3.5a 3.5 3.5, 0, 0, 0, -3.5 -3.5" transform="rotate(0,176.5,127.5)"/><rect x="68" y="131" width="7" height="7" transform="rotate(0,71.5,134.5)"/><path d="M 82 131v 7h 3.5a 3.5 3.5, 0, 0, 0, 0 -7" transform="rotate(180,85.5,134.5)"/><path d="M 89 131v 7h 7v -3.5a 3.5 3.5, 0, 0, 0, -3.5 -3.5" transform="rotate(90,92.5,134.5)"/><circle cx="113.5" cy="134.5" r="3.5" transform="rotate(0,113.5,134.5)"/><rect x="124" y="131" width="7" height="7" transform="rotate(0,127.5,134.5)"/><rect x="152" y="131" width="7" height="7" transform="rotate(0,155.5,134.5)"/><path d="M 166 131v 7h 7v -3.5a 3.5 3.5, 0, 0, 0, -3.5 -3.5" transform="rotate(180,169.5,134.5)"/><path d="M 173 131v 7h 7v -3.5a 3.5 3.5, 0, 0, 0, -3.5 -3.5" transform="rotate(90,176.5,134.5)"/><rect x="68" y="138" width="7" height="7" transform="rotate(0,71.5,141.5)"/><path d="M 75 138v 7h 7v -3.5a 3.5 3.5, 0, 0, 0, -3.5 -3.5" transform="rotate(0,78.5,141.5)"/><path d="M 96 138v 7h 3.5a 3.5 3.5, 0, 0, 0, 0 -7" transform="rotate(180,99.5,141.5)"/><path d="M 103 138v 7h 7v -3.5a 3.5 3.5, 0, 0, 0, -3.5 -3.5" transform="rotate(0,106.5,141.5)"/><rect x="124" y="138" width="7" height="7" transform="rotate(0,127.5,141.5)"/><circle cx="141.5" cy="141.5" r="3.5" transform="rotate(0,141.5,141.5)"/><rect x="152" y="138" width="7" height="7" transform="rotate(0,155.5,141.5)"/><circle cx="183.5" cy="141.5" r="3.5" transform="rotate(0,183.5,141.5)"/><rect x="68" y="145" width="7" height="7" transform="rotate(0,71.5,148.5)"/><rect x="75" y="145" width="7" height="7" transform="rotate(0,78.5,148.5)"/><rect x="82" y="145" width="7" height="7" transform="rotate(0,85.5,148.5)"/><path d="M 89 145v 7h 7v -3.5a 3.5 3.5, 0, 0, 0, -3.5 -3.5" transform="rotate(0,92.5,148.5)"/><rect x="103" y="145" width="7" height="7" transform="rotate(0,106.5,148.5)"/><path d="M 117 145v 7h 7v -3.5a 3.5 3.5, 0, 0, 0, -3.5 -3.5" transform="rotate(-90,120.5,148.5)"/><rect x="124" y="145" width="7" height="7" transform="rotate(0,127.5,148.5)"/><rect x="152" y="145" width="7" height="7" transform="rotate(0,155.5,148.5)"/><rect x="68" y="152" width="7" height="7" transform="rotate(0,71.5,155.5)"/><path d="M 75 152v 7h 7v -3.5a 3.5 3.5, 0, 0, 0, -3.5 -3.5" transform="rotate(90,78.5,155.5)"/><path d="M 89 152v 7h 3.5a 3.5 3.5, 0, 0, 0, 0 -7" transform="rotate(90,92.5,155.5)"/><rect x="103" y="152" width="7" height="7" transform="rotate(0,106.5,155.5)"/><path d="M 117 152v 7h 7v -3.5a 3.5 3.5, 0, 0, 0, -3.5 -3.5" transform="rotate(180,120.5,155.5)"/><rect x="124" y="152" width="7" height="7" transform="rotate(0,127.5,155.5)"/><rect x="131" y="152" width="7" height="7" transform="rotate(0,134.5,155.5)"/><rect x="138" y="152" width="7" height="7" transform="rotate(0,141.5,155.5)"/><rect x="145" y="152" width="7" height="7" transform="rotate(0,148.5,155.5)"/><path d="M 152 152v 7h 7v -3.5a 3.5 3.5, 0, 0, 0, -3.5 -3.5" transform="rotate(90,155.5,155.5)"/><path d="M 173 152v 7h 7v -3.5a 3.5 3.5, 0, 0, 0, -3.5 -3.5" transform="rotate(-90,176.5,155.5)"/><path d="M 180 152v 7h 7v -3.5a 3.5 3.5, 0, 0, 0, -3.5 -3.5" transform="rotate(0,183.5,155.5)"/><path d="M 68 159v 7h 3.5a 3.5 3.5, 0, 0, 0, 0 -7" transform="rotate(90,71.5,162.5)"/><path d="M 82 159v 7h 3.5a 3.5 3.5, 0, 0, 0, 0 -7" transform="rotate(-90,85.5,162.5)"/><path d="M 96 159v 7h 3.5a 3.5 3.5, 0, 0, 0, 0 -7" transform="rotate(180,99.5,162.5)"/><rect x="103" y="159" width="7" height="7" transform="rotate(0,106.5,162.5)"/><path d="M 110 159v 7h 3.5a 3.5 3.5, 0, 0, 0, 0 -7" transform="rotate(0,113.5,162.5)"/><path d="M 124 159v 7h 3.5a 3.5 3.5, 0, 0, 0, 0 -7" transform="rotate(90,127.5,162.5)"/><path d="M 138 159v 7h 3.5a 3.5 3.5, 0, 0, 0, 0 -7" transform="rotate(90,141.5,162.5)"/><rect x="173" y="159" width="7" height="7" transform="rotate(0,176.5,162.5)"/><rect x="180" y="159" width="7" height="7" transform="rotate(0,183.5,162.5)"/><path d="M 75 166v 7h 3.5a 3.5 3.5, 0, 0, 0, 0 -7" transform="rotate(180,78.5,169.5)"/><rect x="82" y="166" width="7" height="7" transform="rotate(0,85.5,169.5)"/><path d="M 89 166v 7h 7v -3.5a 3.5 3.5, 0, 0, 0, -3.5 -3.5" transform="rotate(0,92.5,169.5)"/><rect x="103" y="166" width="7" height="7" transform="rotate(0,106.5,169.5)"/><circle cx="134.5" cy="169.5" r="3.5" transform="rotate(0,134.5,169.5)"/><path d="M 152 166v 7h 7v -3.5a 3.5 3.5, 0, 0, 0, -3.5 -3.5" transform="rotate(-90,155.5,169.5)"/><rect x="159" y="166" width="7" height="7" transform="rotate(0,162.5,169.5)"/><rect x="166" y="166" width="7" height="7" transform="rotate(0,169.5,169.5)"/><rect x="173" y="166" width="7" height="7" transform="rotate(0,176.5,169.5)"/><rect x="180" y="166" width="7" height="7" transform="rotate(0,183.5,169.5)"/><rect x="89" y="173" width="7" height="7" transform="rotate(0,92.5,176.5)"/><rect x="96" y="173" width="7" height="7" transform="rotate(0,99.5,176.5)"/><rect x="103" y="173" width="7" height="7" transform="rotate(0,106.5,176.5)"/><circle cx="120.5" cy="176.5" r="3.5" transform="rotate(0,120.5,176.5)"/><path d="M 145 173v 7h 3.5a 3.5 3.5, 0, 0, 0, 0 -7" transform="rotate(180,148.5,176.5)"/><path d="M 152 173v 7h 7v -3.5a 3.5 3.5, 0, 0, 0, -3.5 -3.5" transform="rotate(90,155.5,176.5)"/><path d="M 166 173v 7h 7v -3.5a 3.5 3.5, 0, 0, 0, -3.5 -3.5" transform="rotate(180,169.5,176.5)"/><rect x="173" y="173" width="7" height="7" transform="rotate(0,176.5,176.5)"/><rect x="180" y="173" width="7" height="7" transform="rotate(0,183.5,176.5)"/><path d="M 68 180v 7h 3.5a 3.5 3.5, 0, 0, 0, 0 -7" transform="rotate(180,71.5,183.5)"/><path d="M 75 180v 7h 3.5a 3.5 3.5, 0, 0, 0, 0 -7" transform="rotate(0,78.5,183.5)"/><path d="M 89 180v 7h 7v -3.5a 3.5 3.5, 0, 0, 0, -3.5 -3.5" transform="rotate(180,92.5,183.5)"/><rect x="96" y="180" width="7" height="7" transform="rotate(0,99.5,183.5)"/><path d="M 103 180v 7h 7v -3.5a 3.5 3.5, 0, 0, 0, -3.5 -3.5" transform="rotate(90,106.5,183.5)"/><path d="M 124 180v 7h 3.5a 3.5 3.5, 0, 0, 0, 0 -7" transform="rotate(180,127.5,183.5)"/><path d="M 131 180v 7h 3.5a 3.5 3.5, 0, 0, 0, 0 -7" transform="rotate(0,134.5,183.5)"/><circle cx="162.5" cy="183.5" r="3.5" transform="rotate(0,162.5,183.5)"/><path d="M 180 180v 7h 3.5a 3.5 3.5, 0, 0, 0, 0 -7" transform="rotate(90,183.5,183.5)"/></clipPath><clipPath id="clip-path-corners-square-color-0-0-0"><path clip-rule="evenodd" d="M 12 29.5v 14a 17.5 17.5, 0, 0, 0, 17.5 17.5h 14a 17.5 17.5, 0, 0, 0, 17.5 -17.5v -14a 17.5 17.5, 0, 0, 0, -17.5 -17.5h -14a 17.5 17.5, 0, 0, 0, -17.5 17.5M 29.5 19h 14a 10.5 10.5, 0, 0, 1, 10.5 10.5v 14a 10.5 10.5, 0, 0, 1, -10.5 10.5h -14a 10.5 10.5, 0, 0, 1, -10.5 -10.5v -14a 10.5 10.5, 0, 0, 1, 10.5 -10.5" transform="rotate(0,36.5,36.5)"/></clipPath><clipPath id="clip-path-corners-dot-color-0-0-0"><circle cx="36.5" cy="36.5" r="10.5" transform="rotate(0,36.5,36.5)"/></clipPath><clipPath id="clip-path-corners-square-color-1-0-0"><path clip-rule="evenodd" d="M 138 29.5v 14a 17.5 17.5, 0, 0, 0, 17.5 17.5h 14a 17.5 17.5, 0, 0, 0, 17.5 -17.5v -14a 17.5 17.5, 0, 0, 0, -17.5 -17.5h -14a 17.5 17.5, 0, 0, 0, -17.5 17.5M 155.5 19h 14a 10.5 10.5, 0, 0, 1, 10.5 10.5v 14a 10.5 10.5, 0, 0, 1, -10.5 10.5h -14a 10.5 10.5, 0, 0, 1, -10.5 -10.5v -14a 10.5 10.5, 0, 0, 1, 10.5 -10.5" transform="rotate(90,162.5,36.5)"/></clipPath><clipPath id="clip-path-corners-dot-color-1-0-0"><circle cx="162.5" cy="36.5" r="10.5" transform="rotate(90,162.5,36.5)"/></clipPath><clipPath id="clip-path-corners-square-color-0-1-0"><path clip-rule="evenodd" d="M 12 155.5v 14a 17.5 17.5, 0, 0, 0, 17.5 17.5h 14a 17.5 17.5, 0, 0, 0, 17.5 -17.5v -14a 17.5 17.5, 0, 0, 0, -17.5 -17.5h -14a 17.5 17.5, 0, 0, 0, -17.5 17.5M 29.5 145h 14a 10.5 10.5, 0, 0, 1, 10.5 10.5v 14a 10.5 10.5, 0, 0, 1, -10.5 10.5h -14a 10.5 10.5, 0, 0, 1, -10.5 -10.5v -14a 10.5 10.5, 0, 0, 1, 10.5 -10.5" transform="rotate(-90,36.5,162.5)"/></clipPath><clipPath id="clip-path-corners-dot-color-0-1-0"><circle cx="36.5" cy="162.5" r="10.5" transform="rotate(-90,36.5,162.5)"/></clipPath></defs><rect x="0" y="0" height="200" width="200" clip-path="url('#clip-path-background-color-0')" fill="transparent"/><rect x="0" y="0" height="200" width="200" clip-path="url('#clip-path-dot-color-0')" fill="#1a2e3b"/><rect x="12" y="12" height="49" width="49" clip-path="url('#clip-path-corners-square-color-0-0-0')" fill="#E07830"/><rect x="26" y="26" height="21" width="21" clip-path="url('#clip-path-corners-dot-color-0-0-0')" fill="#1a2e3b"/><rect x="138" y="12" height="49" width="49" clip-path="url('#clip-path-corners-square-color-1-0-0')" fill="#E07830"/><rect x="152" y="26" height="21" width="21" clip-path="url('#clip-path-corners-dot-color-1-0-0')" fill="#1a2e3b"/><rect x="12" y="138" height="49" width="49" clip-path="url('#clip-path-corners-square-color-0-1-0')" fill="#E07830"/><rect x="26" y="152" height="21" width="21" clip-path="url('#clip-path-corners-dot-color-0-1-0')" fill="#1a2e3b"/></svg>